<?xml version="1.0" encoding="UTF-8"?>
<svg xmlns="http://www.w3.org/2000/svg" xmlns:xlink="http://www.w3.org/1999/xlink" width="30px" height="30px" viewBox="0 0 30 30" version="1.1">
<g id="surface1">
<path style=" stroke:none;fill-rule:nonzero;fill:rgb(0%,0%,0%);fill-opacity:1;" d="M 13.578125 0.0507812 C 12.664062 0.15625 11.242188 0.457031 10.386719 0.734375 C 5.042969 2.472656 1.171875 6.972656 0.199219 12.585938 C 0 13.707031 0 16.292969 0.199219 17.414062 C 1.042969 22.265625 4.050781 26.320312 8.40625 28.449219 C 12.628906 30.515625 17.398438 30.507812 21.613281 28.429688 C 25.957031 26.292969 29.042969 22.113281 29.808594 17.328125 C 30 16.113281 30 13.792969 29.800781 12.621094 C 29.113281 8.484375 26.808594 4.90625 23.363281 2.570312 C 21.714844 1.457031 19.664062 0.613281 17.714844 0.25 C 16.792969 0.078125 14.398438 -0.0351562 13.578125 0.0507812 Z M 14.515625 1.027344 C 11.121094 2.691406 8.429688 5.601562 7.378906 8.742188 C 6.929688 10.085938 6.785156 11.035156 6.785156 12.671875 C 6.785156 14.679688 7.035156 16.128906 7.757812 18.222656 C 7.949219 18.777344 8.101562 19.242188 8.101562 19.257812 C 8.101562 19.328125 7.222656 19.664062 6.707031 19.785156 C 5.992188 19.949219 4.648438 19.949219 3.808594 19.777344 C 3.058594 19.621094 1.84375 19.15625 1.371094 18.835938 C 1.007812 18.59375 0.941406 18.398438 0.714844 16.722656 C 0.558594 15.550781 0.601562 13.742188 0.820312 12.542969 C 1.585938 8.214844 4.242188 4.5 8.058594 2.386719 C 10.058594 1.285156 12.414062 0.648438 14.601562 0.613281 L 15.371094 0.601562 Z M 19.742188 1.414062 C 21.929688 2.207031 23.621094 3.277344 25.171875 4.84375 C 30.042969 9.75 30.765625 17.242188 26.929688 23.015625 C 26.449219 23.75 25.09375 25.386719 25.035156 25.320312 C 25.015625 25.308594 25.085938 25.007812 25.171875 24.648438 C 25.601562 22.964844 25.722656 21.871094 25.734375 19.65625 C 25.734375 17.785156 25.707031 17.429688 25.535156 16.570312 C 25.015625 14.015625 24.042969 12.121094 22.429688 10.535156 C 20.699219 8.835938 18.464844 7.777344 15.179688 7.101562 C 14.984375 7.058594 14.984375 7.042969 15.015625 6.308594 C 15.113281 4.429688 16.421875 2.707031 18.664062 1.492188 C 18.949219 1.335938 19.179688 1.207031 19.179688 1.207031 C 19.179688 1.207031 19.429688 1.300781 19.742188 1.414062 Z M 16.148438 12.957031 C 17.75 13.898438 17.707031 16.234375 16.070312 17.070312 C 15.722656 17.242188 15.527344 17.285156 14.957031 17.285156 C 14.363281 17.285156 14.214844 17.25 13.863281 17.050781 C 13.035156 16.558594 12.621094 15.75 12.691406 14.792969 C 12.765625 13.90625 13.242188 13.222656 14.050781 12.84375 C 14.613281 12.585938 15.59375 12.636719 16.148438 12.957031 Z M 21.136719 21.085938 C 21.75 21.515625 22.234375 22.578125 22.421875 23.921875 C 22.515625 24.585938 22.484375 25.949219 22.363281 26.972656 L 22.300781 27.441406 L 21.257812 27.941406 C 19.09375 28.972656 17.441406 29.34375 15 29.34375 C 13.714844 29.34375 13.214844 29.308594 12.414062 29.15625 C 8.398438 28.386719 5.113281 26.179688 2.851562 22.722656 C 2.613281 22.351562 2.421875 22.027344 2.441406 22.007812 C 2.457031 21.992188 2.742188 22.136719 3.070312 22.34375 C 3.914062 22.851562 5.40625 23.542969 6.472656 23.90625 C 11.34375 25.585938 15.886719 24.878906 19.648438 21.851562 C 19.957031 21.601562 20.328125 21.277344 20.464844 21.128906 C 20.613281 20.984375 20.742188 20.863281 20.765625 20.863281 C 20.792969 20.863281 20.957031 20.964844 21.136719 21.085938 Z M 21.136719 21.085938 "/>
</g>
</svg>
