<?xml version="1.0" encoding="UTF-8"?>
<svg xmlns="http://www.w3.org/2000/svg" xmlns:xlink="http://www.w3.org/1999/xlink" width="30px" height="31px" viewBox="0 0 30 30" version="1.1">
<g id="surface1">
<path style=" stroke:none;fill-rule:nonzero;fill:rgb(0%,0%,0%);fill-opacity:1;" d="M 1.09375 14.09375 C 1.105469 13.121094 1.304688 12.207031 1.5625 11.296875 C 1.851562 10.273438 2.277344 9.308594 2.796875 8.378906 C 3.203125 7.648438 3.671875 6.949219 4.242188 6.332031 C 5.125 5.378906 6.0625 4.484375 7.171875 3.765625 C 8.003906 3.230469 8.875 2.78125 9.785156 2.394531 C 10.5 2.089844 11.269531 1.925781 12.03125 1.738281 C 13.03125 1.488281 14.042969 1.457031 15.0625 1.457031 C 16.09375 1.453125 17.136719 1.410156 18.144531 1.640625 C 18.902344 1.8125 19.660156 1.980469 20.394531 2.246094 C 21.042969 2.480469 21.660156 2.777344 22.265625 3.09375 C 22.984375 3.464844 23.660156 3.902344 24.296875 4.40625 C 24.808594 4.8125 25.296875 5.238281 25.742188 5.707031 C 26.386719 6.386719 26.980469 7.09375 27.480469 7.890625 C 27.851562 8.484375 28.15625 9.097656 28.464844 9.714844 C 28.6875 10.15625 28.78125 10.660156 28.972656 11.121094 C 29.171875 11.59375 29.226562 12.09375 29.34375 12.582031 C 29.457031 13.054688 29.496094 13.546875 29.492188 14.039062 C 29.488281 14.929688 29.527344 15.820312 29.484375 16.707031 C 29.449219 17.484375 29.269531 18.242188 29.054688 18.996094 C 28.914062 19.488281 28.761719 19.976562 28.5625 20.441406 C 28.273438 21.109375 27.960938 21.769531 27.566406 22.386719 C 27.214844 22.933594 26.851562 23.46875 26.421875 23.957031 C 25.960938 24.476562 25.480469 24.980469 24.960938 25.449219 C 24.417969 25.9375 23.832031 26.371094 23.214844 26.765625 C 22.769531 27.050781 22.300781 27.304688 21.824219 27.539062 C 21.0625 27.910156 20.265625 28.191406 19.449219 28.441406 C 17.828125 28.941406 16.167969 28.953125 14.496094 28.941406 C 13.792969 28.9375 13.089844 28.90625 12.414062 28.753906 C 11.660156 28.578125 10.898438 28.410156 10.164062 28.136719 C 9.242188 27.792969 8.371094 27.363281 7.535156 26.867188 C 6.597656 26.308594 5.75 25.628906 4.992188 24.851562 C 4.382812 24.230469 3.804688 23.582031 3.324219 22.859375 C 2.914062 22.238281 2.535156 21.605469 2.238281 20.925781 C 1.84375 20.019531 1.542969 19.085938 1.316406 18.117188 C 1.003906 16.789062 1.136719 15.453125 1.09375 14.09375 M 2.03125 18.292969 C 2.210938 18.847656 2.367188 19.402344 2.582031 19.949219 C 2.925781 20.828125 3.378906 21.644531 3.898438 22.425781 C 4.324219 23.0625 4.800781 23.675781 5.355469 24.226562 C 5.972656 24.832031 6.597656 25.4375 7.320312 25.910156 C 8.289062 26.550781 9.308594 27.105469 10.417969 27.515625 C 11.441406 27.894531 12.484375 28.136719 13.546875 28.320312 C 14.089844 28.417969 14.652344 28.441406 15.203125 28.4375 C 16.042969 28.429688 16.882812 28.367188 17.710938 28.191406 C 17.988281 28.132812 18.273438 28.117188 18.539062 28.042969 C 19.523438 27.761719 20.492188 27.433594 21.410156 26.980469 C 22.449219 26.46875 23.421875 25.867188 24.285156 25.109375 C 25.273438 24.238281 26.140625 23.269531 26.847656 22.15625 C 27.394531 21.292969 27.835938 20.390625 28.199219 19.445312 C 28.578125 18.464844 28.777344 17.441406 28.910156 16.414062 C 29.046875 15.339844 28.96875 14.261719 28.78125 13.1875 C 28.683594 12.648438 28.535156 12.132812 28.40625 11.605469 C 28.277344 11.078125 28.058594 10.589844 27.851562 10.09375 C 27.578125 9.4375 27.21875 8.824219 26.832031 8.222656 C 26.339844 7.460938 25.789062 6.742188 25.144531 6.097656 C 24.332031 5.28125 23.441406 4.558594 22.441406 3.964844 C 21.570312 3.449219 20.652344 3.035156 19.691406 2.707031 C 19.238281 2.554688 18.777344 2.402344 18.3125 2.300781 C 17.753906 2.183594 17.191406 2.082031 16.625 2.042969 C 16.019531 1.996094 15.410156 1.925781 14.796875 1.992188 C 14.25 2.050781 13.703125 2.027344 13.160156 2.171875 C 12.832031 2.261719 12.46875 2.253906 12.136719 2.34375 C 11.347656 2.554688 10.578125 2.8125 9.824219 3.128906 C 8.480469 3.695312 7.269531 4.445312 6.1875 5.394531 C 5.050781 6.390625 4.117188 7.542969 3.363281 8.835938 C 2.925781 9.585938 2.582031 10.371094 2.304688 11.183594 C 2.136719 11.660156 1.988281 12.152344 1.902344 12.648438 C 1.792969 13.324219 1.6875 14 1.632812 14.6875 C 1.582031 15.296875 1.613281 15.902344 1.699219 16.488281 C 1.78125 17.074219 1.777344 17.6875 2.03125 18.292969 Z M 2.03125 18.292969 "/>
<path style=" stroke:none;fill-rule:nonzero;fill:rgb(0%,0%,0%);fill-opacity:1;" d="M 14.882812 5.945312 C 15.515625 5.960938 16.121094 5.902344 16.722656 5.992188 C 16.8125 6.003906 16.835938 5.949219 16.882812 5.902344 C 17.308594 5.496094 17.804688 5.1875 18.363281 4.988281 C 18.847656 4.820312 19.351562 4.820312 19.855469 4.878906 C 20.574219 4.957031 21.25 5.164062 21.78125 5.671875 C 22.136719 6.011719 22.472656 6.375 22.613281 6.859375 C 22.628906 6.917969 22.644531 6.96875 22.597656 7.019531 C 22.542969 7.039062 22.496094 7.011719 22.46875 6.976562 C 22.214844 6.628906 21.808594 6.46875 21.472656 6.21875 C 21.230469 6.042969 20.929688 5.96875 20.621094 6.050781 C 20.441406 6.101562 20.351562 6.210938 20.460938 6.390625 C 20.609375 6.640625 20.707031 6.898438 20.710938 7.191406 C 20.714844 7.339844 20.796875 7.464844 20.9375 7.566406 C 21.691406 8.113281 22.386719 8.726562 22.953125 9.457031 C 23.4375 10.082031 23.84375 10.746094 24.171875 11.46875 C 24.535156 12.269531 24.753906 13.101562 24.84375 13.960938 C 24.902344 14.542969 24.855469 15.132812 24.863281 15.71875 C 24.878906 16.671875 24.691406 17.59375 24.347656 18.480469 C 23.957031 19.484375 23.390625 20.398438 22.679688 21.222656 C 22.570312 21.351562 22.546875 21.449219 22.5625 21.617188 C 22.640625 22.535156 22.46875 23.375 21.816406 24.109375 C 21.480469 24.488281 21.140625 24.851562 20.695312 25.070312 C 20.113281 25.351562 19.480469 25.511719 18.8125 25.394531 C 18.652344 25.367188 18.492188 25.335938 18.328125 25.308594 C 18.210938 25.289062 18.128906 25.242188 18.109375 25.121094 C 18.140625 25.035156 18.214844 25.050781 18.277344 25.046875 C 18.824219 24.988281 19.339844 24.851562 19.816406 24.585938 C 19.929688 24.523438 20.015625 24.433594 20.082031 24.332031 C 20.257812 24.054688 20.21875 24.050781 19.925781 23.921875 C 19.472656 23.722656 19.066406 23.726562 18.605469 23.933594 C 17.980469 24.210938 17.289062 24.324219 16.605469 24.375 C 15.976562 24.425781 15.339844 24.375 14.703125 24.398438 C 14.125 24.417969 13.554688 24.332031 13.003906 24.207031 C 12.148438 24.007812 11.328125 23.699219 10.574219 23.238281 C 10.222656 23.023438 9.851562 22.839844 9.523438 22.585938 C 8.949219 22.144531 8.398438 21.671875 7.9375 21.113281 C 7.566406 20.664062 7.183594 20.214844 6.945312 19.691406 C 6.746094 19.25 6.445312 19.039062 6 18.878906 C 5.082031 18.546875 4.457031 17.867188 4.113281 16.996094 C 3.667969 15.875 3.777344 14.785156 4.566406 13.8125 C 4.648438 13.710938 4.738281 13.609375 4.902344 13.617188 C 4.730469 14.386719 4.300781 15.152344 5.019531 15.90625 C 5.261719 15.597656 5.457031 15.328125 5.753906 15.152344 C 5.863281 15.085938 5.84375 14.964844 5.835938 14.867188 C 5.800781 14.203125 5.882812 13.542969 6.03125 12.902344 C 6.164062 12.308594 6.40625 11.742188 6.660156 11.179688 C 6.925781 10.597656 7.285156 10.074219 7.664062 9.566406 C 8.082031 9.011719 8.582031 8.523438 9.117188 8.070312 C 9.585938 7.675781 10.105469 7.351562 10.636719 7.054688 C 11.117188 6.789062 11.617188 6.570312 12.140625 6.386719 C 12.777344 6.164062 13.429688 6.042969 14.09375 5.964844 C 14.34375 5.933594 14.601562 5.949219 14.882812 5.945312 M 18.292969 22.648438 C 17.847656 21.660156 18.136719 20.71875 19 20.03125 C 19.429688 19.6875 19.964844 19.617188 20.496094 19.644531 C 21.304688 19.6875 21.910156 20.085938 22.308594 20.777344 C 25.863281 16.808594 24.738281 10.757812 20.679688 8.082031 C 19.957031 9.554688 18.828125 9.933594 17.332031 9.1875 C 16.96875 9.003906 16.691406 8.6875 16.523438 8.328125 C 16.246094 7.71875 16.195312 7.089844 16.5625 6.441406 C 15.652344 6.273438 14.785156 6.3125 13.929688 6.449219 C 12.460938 6.6875 11.101562 7.21875 9.921875 8.105469 C 7.636719 9.820312 6.414062 12.078125 6.253906 14.898438 C 7.910156 14.695312 8.789062 15.238281 9.066406 16.445312 C 9.199219 17.023438 9.152344 17.628906 8.804688 18.164062 C 8.445312 18.722656 7.890625 18.972656 7.230469 19.101562 C 7.347656 19.308594 7.449219 19.5 7.5625 19.683594 C 8.015625 20.414062 8.546875 21.082031 9.207031 21.652344 C 9.910156 22.261719 10.675781 22.777344 11.53125 23.171875 C 11.832031 23.308594 12.144531 23.390625 12.449219 23.511719 C 12.921875 23.703125 13.421875 23.824219 13.925781 23.890625 C 14.652344 23.992188 15.386719 24.035156 16.128906 23.96875 C 16.96875 23.890625 17.765625 23.695312 18.546875 23.410156 C 18.667969 23.367188 18.707031 23.285156 18.613281 23.195312 C 18.460938 23.050781 18.421875 22.847656 18.292969 22.648438 Z M 18.292969 22.648438 "/>
<path style=" stroke:none;fill-rule:nonzero;fill:rgb(0%,0%,0%);fill-opacity:1;" d="M 17.65625 15.222656 C 17.742188 16.347656 16.53125 17.4375 15.4375 17.421875 C 14.53125 17.40625 13.816406 17.132812 13.285156 16.417969 C 13.089844 16.160156 12.988281 15.859375 12.945312 15.558594 C 12.753906 14.199219 13.433594 13.128906 14.753906 12.859375 C 16.15625 12.578125 17.3125 13.316406 17.628906 14.601562 C 17.675781 14.792969 17.648438 14.996094 17.65625 15.222656 Z M 17.65625 15.222656 "/>
</g>
</svg>
