<?xml version="1.0" encoding="UTF-8"?>
<svg xmlns="http://www.w3.org/2000/svg" xmlns:xlink="http://www.w3.org/1999/xlink" width="30px" height="30px" viewBox="0 0 30 30" version="1.1">
<g id="surface1">
<path style=" stroke:none;fill-rule:nonzero;fill:rgb(0%,0%,0%);fill-opacity:1;" d="M 13.707031 0.0507812 C 11.742188 0.292969 10.457031 0.628906 8.972656 1.277344 C 4.292969 3.328125 0.984375 7.65625 0.164062 12.800781 C 0.015625 13.691406 0.015625 16.308594 0.164062 17.199219 C 0.515625 19.421875 1.34375 21.542969 2.601562 23.414062 C 3.464844 24.707031 5.292969 26.535156 6.585938 27.398438 C 8.457031 28.65625 10.558594 29.472656 12.800781 29.835938 C 13.808594 30 16.398438 29.984375 17.457031 29.792969 C 23.785156 28.707031 28.722656 23.777344 29.800781 17.484375 C 30.007812 16.265625 30.007812 13.742188 29.800781 12.527344 C 28.742188 6.308594 23.898438 1.378906 17.734375 0.257812 C 16.800781 0.0859375 14.421875 -0.0351562 13.707031 0.0507812 Z M 16.871094 0.734375 C 19.148438 1.035156 21.078125 1.757812 22.949219 3.007812 C 24.550781 4.085938 25.757812 5.25 26.792969 6.75 C 27.363281 7.578125 27.398438 7.664062 27.128906 7.613281 C 26.734375 7.535156 25.136719 7.785156 22.957031 8.25 C 22.808594 8.285156 22.601562 8.128906 22.007812 7.527344 C 18.972656 4.472656 15.222656 2.871094 11.84375 3.199219 C 9.550781 3.414062 6.691406 4.457031 4.871094 5.734375 C 4.257812 6.164062 2.984375 7.378906 2.550781 7.929688 L 2.320312 8.234375 L 2.464844 7.929688 C 2.871094 7.09375 3.914062 5.75 4.921875 4.75 C 8.070312 1.628906 12.457031 0.15625 16.871094 0.734375 Z M 17.285156 6.070312 C 18.671875 6.472656 20.148438 7.292969 21.164062 8.207031 L 21.59375 8.601562 L 20.691406 8.871094 C 20.191406 9.027344 18.992188 9.398438 18.015625 9.714844 C 16.285156 10.265625 16.242188 10.277344 15.734375 10.191406 C 15.449219 10.136719 13.664062 9.785156 11.777344 9.40625 C 9.878906 9.015625 8.320312 8.707031 8.300781 8.707031 C 8.207031 8.707031 9.242188 7.871094 9.820312 7.484375 C 10.964844 6.699219 12.429688 6.070312 13.550781 5.871094 C 13.800781 5.820312 14.570312 5.800781 15.257812 5.808594 C 16.300781 5.835938 16.636719 5.878906 17.285156 6.070312 Z M 28.664062 10.472656 C 29.570312 13.179688 29.628906 16.25 28.828125 19.035156 C 27.664062 23.070312 24.664062 26.464844 20.75 28.199219 C 19.492188 28.757812 17.335938 29.308594 16.441406 29.308594 L 16.242188 29.308594 L 16.472656 28.808594 C 16.800781 28.128906 17.042969 27.386719 17.371094 26.078125 L 17.648438 24.957031 L 18.027344 24.84375 C 19.371094 24.457031 20.507812 24.058594 21.285156 23.691406 C 23.113281 22.84375 24.785156 21.507812 25.871094 20.050781 C 26.851562 18.734375 27.714844 16.601562 28.113281 14.527344 C 28.398438 13.042969 28.398438 11.007812 28.121094 9.765625 C 28.007812 9.277344 27.871094 8.75 27.800781 8.585938 C 27.734375 8.414062 27.671875 8.25 27.679688 8.214844 C 27.691406 8.058594 28.398438 9.671875 28.664062 10.472656 Z M 2.328125 9.421875 C 2.492188 9.664062 3.179688 10.441406 3.863281 11.128906 L 5.09375 12.398438 L 4.921875 13.070312 C 4.601562 14.328125 4.457031 15.585938 4.457031 17.027344 C 4.457031 19.691406 5 21.578125 6.320312 23.558594 C 6.992188 24.558594 8.714844 26.300781 9.828125 27.09375 C 11.414062 28.214844 13.222656 29 14.828125 29.257812 L 15.648438 29.398438 L 14.484375 29.351562 C 10.84375 29.242188 7.5 27.800781 4.929688 25.25 C 2.722656 23.070312 1.363281 20.484375 0.808594 17.414062 C 0.59375 16.242188 0.59375 13.800781 0.808594 12.585938 C 1.042969 11.285156 1.785156 8.957031 1.972656 8.964844 C 2 8.964844 2.164062 9.171875 2.328125 9.421875 Z M 16.207031 11.601562 C 17.207031 11.992188 18.015625 12.785156 18.371094 13.707031 C 19.09375 15.613281 18.128906 17.664062 16.164062 18.414062 C 15.851562 18.535156 15.507812 18.578125 14.957031 18.578125 C 14.242188 18.578125 14.128906 18.550781 13.535156 18.265625 C 12.40625 17.722656 11.679688 16.785156 11.457031 15.570312 C 11.128906 13.792969 12.371094 11.929688 14.207031 11.464844 C 14.664062 11.351562 15.75 11.421875 16.207031 11.601562 Z M 24.085938 13.542969 C 24.351562 16.113281 23.84375 18.441406 22.648438 20.214844 C 22.148438 20.949219 21.101562 21.964844 20.300781 22.5 C 19.691406 22.914062 18.027344 23.742188 17.957031 23.671875 C 17.941406 23.65625 18.078125 22.742188 18.265625 21.628906 C 18.457031 20.515625 18.636719 19.34375 18.671875 19.015625 C 18.742188 18.308594 18.621094 18.464844 21.214844 15.820312 C 22.191406 14.820312 23.199219 13.785156 23.449219 13.507812 C 23.707031 13.242188 23.941406 13.015625 23.972656 13.015625 C 24 13.015625 24.050781 13.257812 24.085938 13.542969 Z M 6.84375 13.863281 C 7.585938 14.5 9.671875 16.191406 10.058594 16.464844 C 10.242188 16.59375 10.335938 16.835938 11.941406 21.292969 C 12.257812 22.171875 12.585938 23.09375 12.679688 23.34375 C 12.765625 23.59375 12.84375 23.835938 12.84375 23.878906 C 12.84375 23.984375 11.664062 23.550781 10.929688 23.179688 C 7.777344 21.59375 6.027344 18.964844 5.886719 15.59375 C 5.84375 14.558594 5.914062 13.191406 6.007812 13.191406 C 6.035156 13.191406 6.40625 13.492188 6.84375 13.863281 Z M 6.84375 13.863281 "/>
</g>
</svg>
