<?xml version="1.0" encoding="UTF-8"?>
<svg xmlns="http://www.w3.org/2000/svg" xmlns:xlink="http://www.w3.org/1999/xlink" width="30px" height="30px" viewBox="0 0 30 30" version="1.1">
<g id="surface1">
<path style=" stroke:none;fill-rule:nonzero;fill:rgb(0%,0%,0%);fill-opacity:1;" d="M 13.664062 0.0507812 C 12 0.292969 11.5 0.398438 10.75 0.621094 C 5.25 2.265625 1.191406 6.851562 0.207031 12.542969 C 0 13.734375 0 16.265625 0.207031 17.457031 C 1.300781 23.792969 6.234375 28.734375 12.535156 29.800781 C 13.742188 30.007812 16.277344 30.007812 17.472656 29.800781 C 22.34375 28.964844 26.414062 25.886719 28.535156 21.441406 C 29.621094 19.15625 30.078125 16.929688 29.972656 14.441406 C 29.871094 12.09375 29.414062 10.285156 28.40625 8.277344 C 26.285156 4.050781 22.171875 0.992188 17.570312 0.214844 C 16.792969 0.0859375 14.191406 -0.0273438 13.664062 0.0507812 Z M 15.65625 1.871094 C 16.441406 3.070312 17.050781 4.15625 17.578125 5.277344 C 18.15625 6.515625 18.65625 7.75 18.601562 7.808594 C 18.578125 7.828125 18.214844 7.941406 17.792969 8.058594 C 17.371094 8.171875 16.578125 8.421875 16.035156 8.621094 C 15.492188 8.820312 15.007812 8.984375 14.957031 8.984375 C 14.914062 8.984375 14.335938 8.800781 13.679688 8.585938 C 13.027344 8.371094 12.257812 8.148438 11.972656 8.085938 C 11.679688 8.027344 11.429688 7.929688 11.40625 7.878906 C 11.320312 7.65625 12.484375 5.035156 13.308594 3.578125 C 13.84375 2.648438 14.929688 0.949219 15 0.949219 C 15.027344 0.949219 15.320312 1.363281 15.65625 1.871094 Z M 26.265625 7.550781 C 26.863281 7.601562 26.957031 7.628906 26.921875 7.75 C 26.636719 8.570312 25.414062 10.863281 24.578125 12.15625 C 24.078125 12.941406 22.972656 14.449219 22.851562 14.527344 C 22.808594 14.542969 22.351562 14.148438 21.84375 13.636719 C 21.328125 13.121094 20.742188 12.558594 20.535156 12.398438 C 20.164062 12.09375 20.164062 12.078125 19.949219 11.027344 C 19.828125 10.441406 19.613281 9.558594 19.464844 9.070312 C 19.320312 8.585938 19.214844 8.171875 19.242188 8.148438 C 19.265625 8.121094 19.707031 8.027344 20.222656 7.941406 C 22.277344 7.585938 24.699219 7.429688 26.265625 7.550781 Z M 9.441406 8.007812 C 10.148438 8.113281 10.742188 8.214844 10.757812 8.234375 C 10.777344 8.25 10.714844 8.507812 10.613281 8.808594 C 10.398438 9.464844 9.914062 11.515625 9.914062 11.792969 C 9.914062 11.941406 9.515625 12.386719 8.542969 13.363281 L 7.179688 14.734375 L 6.75 14.199219 C 5.429688 12.558594 4.398438 10.929688 3.472656 9.070312 C 3.164062 8.441406 2.929688 7.898438 2.964844 7.863281 C 3.070312 7.765625 5.042969 7.714844 6.636719 7.765625 C 7.464844 7.800781 8.722656 7.90625 9.441406 8.007812 Z M 19.308594 10.058594 C 19.507812 10.800781 19.648438 11.464844 19.636719 11.535156 C 19.621094 11.621094 19.464844 11.542969 19.09375 11.285156 C 18.242188 10.664062 17.863281 10.429688 16.65625 9.808594 C 16.027344 9.484375 15.558594 9.199219 15.621094 9.179688 C 16.320312 8.929688 16.671875 8.820312 17.628906 8.535156 L 18.75 8.207031 L 18.863281 8.457031 C 18.921875 8.59375 19.121094 9.320312 19.308594 10.058594 Z M 12.09375 8.535156 C 12.484375 8.636719 13.164062 8.835938 13.613281 8.984375 L 14.429688 9.25 L 13.578125 9.671875 C 12.734375 10.09375 11.300781 10.984375 10.671875 11.484375 C 10.421875 11.671875 10.34375 11.707031 10.34375 11.601562 C 10.34375 11.527344 10.515625 10.785156 10.734375 9.941406 C 10.949219 9.101562 11.121094 8.40625 11.121094 8.386719 C 11.121094 8.328125 11.441406 8.371094 12.09375 8.535156 Z M 15.308594 9.621094 C 16.679688 10.179688 19.414062 11.835938 19.691406 12.265625 C 19.898438 12.585938 20.015625 14.757812 19.914062 16.242188 C 19.863281 16.949219 19.792969 17.578125 19.757812 17.636719 C 19.558594 17.992188 17.449219 19.378906 16.027344 20.085938 C 15.171875 20.515625 15.121094 20.535156 14.828125 20.429688 C 14.148438 20.179688 12.570312 19.34375 11.679688 18.75 C 10.207031 17.757812 10.257812 17.828125 10.15625 17.027344 C 10.070312 16.308594 10.113281 12.765625 10.214844 12.457031 C 10.335938 12.09375 12.335938 10.734375 13.835938 9.992188 C 14.398438 9.714844 14.886719 9.484375 14.921875 9.484375 C 14.957031 9.484375 15.128906 9.542969 15.308594 9.621094 Z M 9.699219 14.992188 C 9.699219 16.949219 9.679688 17.214844 9.570312 17.15625 C 9.5 17.113281 8.992188 16.628906 8.449219 16.085938 L 7.464844 15.085938 L 7.714844 14.808594 C 7.898438 14.601562 9.679688 12.757812 9.699219 12.757812 C 9.699219 12.757812 9.699219 13.765625 9.699219 14.992188 Z M 21.515625 13.886719 C 22.058594 14.421875 22.5 14.898438 22.5 14.941406 C 22.5 14.984375 22.007812 15.515625 21.40625 16.136719 L 20.300781 17.25 L 20.300781 15.007812 C 20.300781 13.128906 20.320312 12.785156 20.421875 12.84375 C 20.484375 12.878906 20.984375 13.34375 21.515625 13.886719 Z M 24.136719 16.957031 C 25.007812 18.164062 25.785156 19.441406 26.449219 20.75 C 27.164062 22.164062 27.15625 22.128906 26.707031 22.191406 C 25.308594 22.363281 22.472656 22.265625 20.515625 21.984375 C 19.835938 21.878906 19.257812 21.785156 19.242188 21.765625 C 19.222656 21.75 19.320312 21.414062 19.441406 21.015625 C 19.570312 20.628906 19.777344 19.777344 19.90625 19.136719 L 20.148438 17.972656 L 21.472656 16.628906 L 22.800781 15.285156 L 23.121094 15.636719 C 23.300781 15.835938 23.757812 16.421875 24.136719 16.957031 Z M 7.929688 16.15625 C 8.320312 16.558594 8.90625 17.113281 9.234375 17.386719 C 9.558594 17.664062 9.851562 17.964844 9.871094 18.058594 C 10.070312 19.101562 10.484375 20.800781 10.648438 21.285156 L 10.84375 21.878906 L 10.308594 21.972656 C 8.058594 22.371094 5.457031 22.570312 3.949219 22.464844 C 2.871094 22.386719 2.90625 22.570312 3.664062 20.992188 C 4.222656 19.820312 4.871094 18.679688 5.628906 17.542969 C 6.136719 16.785156 7.148438 15.429688 7.207031 15.429688 C 7.222656 15.429688 7.550781 15.757812 7.929688 16.15625 Z M 19.398438 19.636719 C 19.007812 21.214844 18.863281 21.636719 18.722656 21.636719 C 18.527344 21.636719 17.242188 21.300781 16.40625 21.027344 L 15.601562 20.757812 L 16.148438 20.5 C 17.171875 19.992188 19.25 18.679688 19.5 18.378906 C 19.707031 18.128906 19.679688 18.492188 19.398438 19.636719 Z M 11.585938 19.171875 C 12.015625 19.457031 12.835938 19.929688 13.421875 20.234375 C 14.34375 20.707031 14.457031 20.785156 14.292969 20.851562 C 13.472656 21.15625 12.941406 21.328125 12.148438 21.542969 L 11.222656 21.792969 L 11.042969 21.214844 C 10.871094 20.648438 10.34375 18.558594 10.34375 18.421875 C 10.34375 18.378906 10.449219 18.414062 10.585938 18.507812 C 10.714844 18.59375 11.164062 18.898438 11.585938 19.171875 Z M 17.421875 21.75 C 17.863281 21.871094 18.335938 21.992188 18.464844 22.015625 L 18.707031 22.070312 L 18.558594 22.441406 C 18.085938 23.648438 17.414062 25.101562 16.886719 26.078125 C 16.292969 27.15625 15.09375 29.050781 15 29.050781 C 14.929688 29.050781 13.84375 27.351562 13.308594 26.421875 C 12.75 25.429688 12.199219 24.285156 11.707031 23.070312 C 11.328125 22.128906 11.328125 22.121094 11.921875 22.015625 C 12.285156 21.957031 14.628906 21.191406 14.871094 21.050781 C 14.984375 20.992188 15.242188 21.050781 15.808594 21.257812 C 16.25 21.414062 16.972656 21.636719 17.421875 21.75 Z M 17.421875 21.75 "/>
<path style=" stroke:none;fill-rule:nonzero;fill:rgb(0%,0%,0%);fill-opacity:1;" d="M 14.300781 12.265625 C 13.007812 12.636719 12.207031 13.671875 12.199219 15 C 12.199219 16.148438 12.800781 17.078125 13.851562 17.558594 C 14.542969 17.878906 15.128906 17.90625 15.878906 17.664062 C 16.40625 17.5 16.585938 17.386719 16.984375 16.992188 C 17.371094 16.601562 17.5 16.398438 17.65625 15.921875 C 17.898438 15.191406 17.898438 14.808594 17.65625 14.09375 C 17.214844 12.742188 15.648438 11.886719 14.300781 12.265625 Z M 14.300781 12.265625 "/>
</g>
</svg>
