<?xml version="1.0" encoding="UTF-8"?>
<svg xmlns="http://www.w3.org/2000/svg" xmlns:xlink="http://www.w3.org/1999/xlink" width="30px" height="30px" viewBox="0 0 30 30" version="1.1">
<g id="surface1">
<path style=" stroke:none;fill-rule:nonzero;fill:rgb(0%,0%,0%);fill-opacity:1;" d="M 12.679688 0.199219 C 6.953125 1.109375 2.230469 5.285156 0.601562 10.902344 C -1.882812 19.496094 3.882812 28.503906 12.71875 29.8125 C 14.480469 30.078125 15.546875 30.078125 17.308594 29.8125 C 26.144531 28.503906 31.882812 19.550781 29.425781 10.917969 C 27.359375 3.65625 20.125 -0.972656 12.679688 0.199219 Z M 16.441406 0.679688 C 17.203125 0.761719 18.308594 0.972656 18.910156 1.148438 C 20.125 1.496094 21.886719 2.242188 21.886719 2.414062 C 21.886719 2.523438 21.367188 3.230469 20.257812 4.644531 L 19.589844 5.472656 L 19.203125 5.191406 C 18.589844 4.765625 16.695312 3.921875 15.746094 3.671875 C 14.601562 3.363281 12.050781 3.257812 10.824219 3.46875 C 9.007812 3.777344 7.875 4.949219 7.765625 6.644531 C 7.714844 7.394531 7.632812 7.648438 7.140625 8.394531 C 6.832031 8.875 6.378906 9.648438 6.152344 10.101562 C 5.820312 10.769531 5.671875 10.941406 5.429688 10.929688 C 4.644531 10.917969 1.546875 10.316406 1.507812 10.183594 C 1.46875 10.089844 1.679688 9.515625 1.976562 8.902344 C 4.082031 4.417969 8.515625 1.226562 13.410156 0.679688 C 14.933594 0.519531 14.933594 0.519531 16.441406 0.679688 Z M 12.371094 5.152344 C 13.066406 5.671875 13.277344 6.097656 13.277344 6.941406 C 13.277344 7.820312 13.039062 8.261719 12.277344 8.769531 C 11.410156 9.367188 10.023438 9.074219 9.394531 8.152344 C 9.0625 7.648438 8.953125 6.726562 9.195312 6.113281 C 9.328125 5.738281 9.96875 5.085938 10.34375 4.925781 C 10.78125 4.722656 11.984375 4.871094 12.371094 5.152344 Z M 26.488281 6.300781 C 27.71875 8.019531 28.425781 9.476562 28.972656 11.410156 C 29.238281 12.34375 29.28125 12.796875 29.28125 14.945312 C 29.292969 16.949219 29.238281 17.589844 29.039062 18.351562 C 28.277344 21.246094 27.171875 23.167969 25.074219 25.25 C 24.355469 25.96875 23.726562 26.558594 23.660156 26.558594 C 23.488281 26.542969 21.847656 23.328125 21.980469 23.234375 C 22.03125 23.179688 22.433594 22.914062 22.847656 22.632812 C 24.460938 21.566406 25.96875 19.644531 26.917969 17.496094 C 27.824219 15.414062 27.289062 13.398438 25.597656 12.53125 C 25.234375 12.34375 24.996094 12.078125 24.742188 11.570312 C 24.542969 11.195312 24.128906 10.460938 23.792969 9.96875 L 23.21875 9.0625 L 24.582031 7.394531 C 25.328125 6.484375 25.96875 5.738281 26.011719 5.738281 C 26.050781 5.738281 26.277344 5.992188 26.488281 6.300781 Z M 19.097656 7.285156 C 20.285156 7.914062 22.007812 9.554688 22.714844 10.742188 C 23.460938 11.996094 23.460938 12.050781 22.714844 12.304688 C 21.351562 12.796875 20.539062 13.933594 20.445312 15.480469 C 20.40625 16.292969 20.429688 16.429688 21.003906 17.535156 C 21.511719 18.535156 21.621094 18.855469 21.621094 19.46875 C 21.621094 20.910156 20.820312 21.898438 18.882812 22.820312 C 17.253906 23.59375 15.121094 24.019531 13.824219 23.835938 C 13.238281 23.742188 13.210938 23.726562 13.304688 23.378906 C 13.492188 22.753906 13.398438 21.445312 13.144531 20.953125 C 12.425781 19.511719 11.558594 18.988281 9.636719 18.828125 C 8.21875 18.695312 7.738281 18.523438 7.191406 17.921875 C 6.550781 17.242188 6.367188 16.695312 6.300781 15.414062 C 6.257812 14.507812 6.3125 13.917969 6.527344 13.011719 C 6.820312 11.757812 7.699219 9.808594 8.140625 9.410156 C 8.378906 9.179688 8.421875 9.195312 8.835938 9.542969 C 9.554688 10.15625 10.25 10.410156 11.222656 10.410156 C 12.53125 10.410156 13.359375 9.957031 14.144531 8.78125 C 14.480469 8.289062 14.894531 7.726562 15.078125 7.527344 C 16.027344 6.511719 17.441406 6.417969 19.097656 7.285156 Z M 25.089844 13.773438 C 26.355469 14.640625 26.328125 16.453125 25.050781 17.402344 C 24.515625 17.789062 23.261719 17.789062 22.738281 17.402344 C 21.527344 16.496094 21.417969 14.839844 22.527344 13.945312 C 23.019531 13.558594 23.207031 13.492188 23.96875 13.492188 C 24.460938 13.480469 24.769531 13.558594 25.089844 13.773438 Z M 2.601562 15.679688 C 3.46875 15.789062 4.242188 15.878906 4.296875 15.878906 C 4.351562 15.878906 4.402344 16.347656 4.402344 16.910156 C 4.402344 19.363281 5.136719 21.621094 6.660156 23.820312 C 7.96875 25.730469 9.78125 26.355469 11.503906 25.476562 C 12.011719 25.222656 12.316406 25.183594 14.210938 25.140625 C 15.386719 25.117188 16.507812 25.089844 16.707031 25.0625 C 17.054688 25.023438 17.121094 25.117188 18.015625 26.957031 L 18.949219 28.890625 L 18.351562 29.039062 C 15.398438 29.800781 11.808594 29.414062 8.859375 28.039062 C 4.402344 25.941406 1.1875 21.433594 0.695312 16.574219 C 0.601562 15.628906 0.613281 15.480469 0.789062 15.480469 C 0.90625 15.480469 1.722656 15.574219 2.601562 15.679688 Z M 10.53125 20.285156 C 10.78125 20.351562 11.195312 20.605469 11.4375 20.84375 C 12.34375 21.726562 12.304688 23.074219 11.34375 23.941406 C 9.820312 25.316406 7.433594 23.953125 7.820312 21.925781 C 7.925781 21.324219 8.699219 20.457031 9.261719 20.296875 C 9.820312 20.136719 10.007812 20.125 10.53125 20.285156 Z M 10.53125 20.285156 "/>
<path style=" stroke:none;fill-rule:nonzero;fill:rgb(0%,0%,0%);fill-opacity:1;" d="M 13.679688 12.15625 C 11.648438 13.171875 11.222656 15.878906 12.878906 17.335938 C 13.558594 17.9375 14.121094 18.148438 14.988281 18.148438 C 17.75 18.148438 19.164062 14.972656 17.347656 12.890625 C 16.480469 11.917969 14.828125 11.582031 13.679688 12.15625 Z M 13.679688 12.15625 "/>
</g>
</svg>
