<?xml version="1.0" encoding="UTF-8"?>
<svg xmlns="http://www.w3.org/2000/svg" xmlns:xlink="http://www.w3.org/1999/xlink" width="45px" height="45px" viewBox="0 0 45 45" version="1.1">
<g id="surface1">
<path style=" stroke:none;fill-rule:nonzero;fill:rgb(100%,100%,100%);fill-opacity:1;" d="M 3.429688 0.0859375 C 17.308594 0.0859375 31.191406 0.0859375 45.078125 0.0859375 C 45.078125 15.085938 45.078125 30.085938 45.078125 45.085938 C 42.796875 45.085938 40.511719 45.085938 38.195312 45.054688 C 38.714844 44.808594 39.300781 44.660156 39.804688 44.375 C 41.363281 43.484375 42.152344 42.058594 42.257812 40.316406 C 42.355469 38.632812 41.734375 37.203125 40.386719 36.113281 C 39.476562 35.378906 38.460938 34.980469 37.292969 34.980469 C 29.664062 34.980469 22.035156 34.980469 14.402344 34.976562 C 13.988281 34.976562 13.566406 34.945312 13.15625 34.886719 C 12.121094 34.738281 11.164062 33.859375 11.09375 32.792969 C 11.011719 31.601562 11.074219 30.398438 11.074219 29.132812 C 11.980469 29.621094 12.925781 29.78125 13.871094 29.785156 C 21.96875 29.804688 30.070312 29.796875 38.167969 29.789062 C 38.554688 29.789062 38.949219 29.761719 39.328125 29.683594 C 40.46875 29.441406 41.457031 28.921875 42.242188 28.03125 C 42.984375 27.195312 43.480469 26.230469 43.492188 25.121094 C 43.53125 21.429688 43.503906 17.742188 43.507812 14.050781 C 43.507812 13.503906 43.136719 13.070312 42.621094 12.929688 C 42.238281 12.828125 41.835938 12.796875 41.441406 12.746094 C 40.488281 12.625 39.535156 12.519531 38.585938 12.386719 C 37.429688 12.226562 36.277344 12.027344 35.117188 11.867188 C 34.140625 11.734375 33.15625 11.644531 32.175781 11.507812 C 31.019531 11.347656 29.867188 11.152344 28.707031 10.988281 C 27.757812 10.855469 26.804688 10.761719 25.855469 10.628906 C 24.46875 10.4375 23.089844 10.214844 21.703125 10.023438 C 20.542969 9.863281 19.375 9.738281 18.214844 9.574219 C 17.058594 9.414062 15.902344 9.21875 14.746094 9.054688 C 13.53125 8.886719 12.3125 8.738281 11.074219 8.578125 C 11.074219 7.179688 11.078125 5.789062 11.070312 4.402344 C 11.070312 3.761719 10.84375 3.246094 10.203125 2.988281 C 9.824219 2.835938 9.449219 2.675781 9.070312 2.519531 C 7.839844 2 6.605469 1.488281 5.375 0.964844 C 4.71875 0.683594 4.074219 0.378906 3.429688 0.0859375 Z M 3.429688 0.0859375 "/>
<path style=" stroke:none;fill-rule:nonzero;fill:rgb(0%,0%,0%);fill-opacity:1;" d="M 3.386719 0.0859375 C 4.074219 0.378906 4.71875 0.683594 5.375 0.964844 C 6.605469 1.488281 7.839844 2 9.070312 2.519531 C 9.449219 2.675781 9.824219 2.835938 10.203125 2.988281 C 10.84375 3.246094 11.070312 3.761719 11.070312 4.402344 C 11.078125 5.789062 11.074219 7.179688 11.074219 8.578125 C 12.3125 8.738281 13.53125 8.886719 14.746094 9.054688 C 15.902344 9.21875 17.058594 9.414062 18.214844 9.574219 C 19.375 9.738281 20.542969 9.863281 21.703125 10.023438 C 23.089844 10.214844 24.46875 10.4375 25.855469 10.628906 C 26.804688 10.761719 27.757812 10.855469 28.707031 10.988281 C 29.867188 11.152344 31.019531 11.347656 32.175781 11.507812 C 33.15625 11.644531 34.140625 11.734375 35.117188 11.867188 C 36.277344 12.027344 37.429688 12.226562 38.585938 12.386719 C 39.535156 12.519531 40.488281 12.625 41.441406 12.746094 C 41.835938 12.796875 42.238281 12.828125 42.621094 12.929688 C 43.136719 13.070312 43.507812 13.503906 43.507812 14.050781 C 43.503906 17.742188 43.53125 21.429688 43.492188 25.121094 C 43.480469 26.230469 42.984375 27.195312 42.242188 28.03125 C 41.457031 28.921875 40.46875 29.441406 39.328125 29.683594 C 38.949219 29.761719 38.554688 29.789062 38.167969 29.789062 C 30.070312 29.796875 21.96875 29.804688 13.871094 29.785156 C 12.925781 29.78125 11.980469 29.621094 11.074219 29.132812 C 11.074219 30.398438 11.011719 31.601562 11.09375 32.792969 C 11.164062 33.859375 12.121094 34.738281 13.15625 34.886719 C 13.566406 34.945312 13.988281 34.976562 14.402344 34.976562 C 22.035156 34.980469 29.664062 34.980469 37.292969 34.980469 C 38.460938 34.980469 39.476562 35.378906 40.386719 36.113281 C 41.734375 37.203125 42.355469 38.632812 42.257812 40.316406 C 42.152344 42.058594 41.363281 43.484375 39.804688 44.375 C 39.300781 44.660156 38.714844 44.808594 38.15625 45.054688 C 37.5 45.085938 36.851562 45.085938 36.152344 45.054688 C 33.417969 44.472656 30.945312 41.4375 32.683594 37.546875 C 29.027344 37.546875 25.378906 37.546875 21.683594 37.546875 C 22.289062 38.664062 22.46875 39.820312 22.238281 41.039062 C 21.992188 42.335938 21.304688 43.328125 20.269531 44.132812 C 19.644531 44.621094 18.917969 44.84375 18.195312 45.085938 C 17.605469 45.085938 17.019531 45.085938 16.378906 45.054688 C 16.171875 44.988281 16.015625 44.964844 15.867188 44.925781 C 14.792969 44.621094 13.90625 44.042969 13.226562 43.152344 C 12.300781 41.945312 12.03125 40.570312 12.28125 39.101562 C 12.375 38.542969 12.621094 38.011719 12.796875 37.460938 C 12.5625 37.417969 12.300781 37.402344 12.0625 37.320312 C 9.925781 36.589844 8.457031 34.765625 8.449219 32.488281 C 8.417969 23.496094 8.4375 14.503906 8.441406 5.507812 C 8.441406 5.242188 8.421875 5.042969 8.128906 4.925781 C 7.265625 4.585938 6.410156 4.222656 5.550781 3.863281 C 4.515625 3.429688 3.46875 3.007812 2.449219 2.53125 C 2.175781 2.40625 1.894531 2.136719 1.773438 1.863281 C 1.453125 1.121094 1.679688 0.613281 2.460938 0.0859375 C 2.757812 0.0859375 3.050781 0.0859375 3.386719 0.0859375 M 37.398438 27.15625 C 37.71875 27.15625 38.042969 27.148438 38.363281 27.160156 C 39.746094 27.21875 40.960938 25.953125 40.957031 24.546875 C 40.953125 22.144531 40.957031 19.742188 40.957031 17.339844 C 40.957031 16.671875 40.957031 16 40.957031 15.292969 C 30.988281 13.921875 21.042969 12.550781 11.074219 11.175781 C 11.074219 11.363281 11.074219 11.523438 11.074219 11.683594 C 11.074219 16.003906 11.09375 20.324219 11.0625 24.640625 C 11.054688 25.933594 12.257812 27.164062 13.589844 27.164062 C 21.496094 27.152344 29.402344 27.15625 37.398438 27.15625 M 37.882812 42.449219 C 38.035156 42.371094 38.1875 42.292969 38.335938 42.21875 C 39.585938 41.582031 39.957031 40.203125 39.460938 39.042969 C 38.777344 37.441406 36.503906 36.910156 35.246094 38.527344 C 34.574219 39.386719 34.535156 40.488281 35.132812 41.417969 C 35.648438 42.226562 36.890625 42.757812 37.882812 42.449219 M 15.109375 41.253906 C 15.265625 41.441406 15.414062 41.636719 15.582031 41.8125 C 16.332031 42.601562 17.433594 42.742188 18.355469 42.273438 C 19.175781 41.855469 19.921875 40.777344 19.710938 39.613281 C 19.445312 38.175781 17.824219 37.101562 16.386719 37.714844 C 15.199219 38.21875 14.277344 39.585938 15.109375 41.253906 Z M 15.109375 41.253906 "/>
<path style=" stroke:none;fill-rule:nonzero;fill:rgb(100%,100%,100%);fill-opacity:1;" d="M 2.417969 0.0859375 C 1.679688 0.613281 1.453125 1.121094 1.773438 1.863281 C 1.894531 2.136719 2.175781 2.40625 2.449219 2.53125 C 3.46875 3.007812 4.515625 3.429688 5.550781 3.863281 C 6.410156 4.222656 7.265625 4.585938 8.128906 4.925781 C 8.421875 5.042969 8.441406 5.242188 8.441406 5.507812 C 8.4375 14.503906 8.417969 23.496094 8.449219 32.488281 C 8.457031 34.765625 9.925781 36.589844 12.0625 37.320312 C 12.300781 37.402344 12.5625 37.417969 12.796875 37.460938 C 12.621094 38.011719 12.375 38.542969 12.28125 39.101562 C 12.03125 40.570312 12.300781 41.945312 13.226562 43.152344 C 13.90625 44.042969 14.792969 44.621094 15.867188 44.925781 C 16.015625 44.964844 16.171875 44.988281 16.335938 45.054688 C 10.929688 45.085938 5.515625 45.085938 0.09375 45.085938 C 0.09375 30.089844 0.09375 15.089844 0.09375 0.0859375 C 0.855469 0.0859375 1.617188 0.0859375 2.417969 0.0859375 Z M 2.417969 0.0859375 "/>
<path style=" stroke:none;fill-rule:nonzero;fill:rgb(100%,100%,100%);fill-opacity:1;" d="M 18.234375 45.085938 C 18.917969 44.84375 19.644531 44.621094 20.269531 44.132812 C 21.304688 43.328125 21.992188 42.335938 22.238281 41.039062 C 22.46875 39.820312 22.289062 38.664062 21.683594 37.546875 C 25.378906 37.546875 29.027344 37.546875 32.683594 37.546875 C 30.945312 41.4375 33.417969 44.472656 36.113281 45.054688 C 30.175781 45.085938 24.226562 45.085938 18.234375 45.085938 Z M 18.234375 45.085938 "/>
<path style=" stroke:none;fill-rule:nonzero;fill:rgb(100%,100%,100%);fill-opacity:1;" d="M 37.351562 27.15625 C 29.402344 27.15625 21.496094 27.152344 13.589844 27.164062 C 12.257812 27.164062 11.054688 25.933594 11.0625 24.640625 C 11.09375 20.324219 11.074219 16.003906 11.074219 11.683594 C 11.074219 11.523438 11.074219 11.363281 11.074219 11.175781 C 21.042969 12.550781 30.988281 13.921875 40.957031 15.292969 C 40.957031 16 40.957031 16.671875 40.957031 17.339844 C 40.957031 19.742188 40.953125 22.144531 40.957031 24.546875 C 40.960938 25.953125 39.746094 27.21875 38.363281 27.160156 C 38.042969 27.148438 37.71875 27.15625 37.351562 27.15625 Z M 37.351562 27.15625 "/>
<path style=" stroke:none;fill-rule:nonzero;fill:rgb(100%,100%,100%);fill-opacity:1;" d="M 37.847656 42.449219 C 36.890625 42.757812 35.648438 42.226562 35.132812 41.417969 C 34.535156 40.488281 34.574219 39.386719 35.246094 38.527344 C 36.503906 36.910156 38.777344 37.441406 39.460938 39.042969 C 39.957031 40.203125 39.585938 41.582031 38.335938 42.21875 C 38.1875 42.292969 38.035156 42.371094 37.847656 42.449219 Z M 37.847656 42.449219 "/>
<path style=" stroke:none;fill-rule:nonzero;fill:rgb(100%,100%,100%);fill-opacity:1;" d="M 15.085938 41.230469 C 14.277344 39.585938 15.199219 38.21875 16.386719 37.714844 C 17.824219 37.101562 19.445312 38.175781 19.710938 39.613281 C 19.921875 40.777344 19.175781 41.855469 18.355469 42.273438 C 17.433594 42.742188 16.332031 42.601562 15.582031 41.8125 C 15.414062 41.636719 15.265625 41.441406 15.085938 41.230469 Z M 15.085938 41.230469 "/>
</g>
</svg>
