<?xml version="1.0" encoding="UTF-8"?>
<svg xmlns="http://www.w3.org/2000/svg" xmlns:xlink="http://www.w3.org/1999/xlink" width="45px" height="45px" viewBox="0 0 45 45" version="1.1">
<g id="surface1">
<path style=" stroke:none;fill-rule:nonzero;fill:rgb(0%,0%,0%);fill-opacity:1;" d="M 8.039062 45.085938 C 7.625 44.769531 7.519531 44.371094 7.519531 43.882812 C 7.53125 29.675781 7.527344 15.46875 7.523438 1.261719 C 7.523438 0.820312 7.578125 0.417969 7.984375 0.113281 C 17.695312 0.0859375 27.394531 0.0859375 37.136719 0.0859375 C 37.550781 0.40625 37.65625 0.808594 37.65625 1.292969 C 37.644531 15.511719 37.644531 29.730469 37.652344 43.949219 C 37.652344 44.386719 37.554688 44.753906 37.195312 45.0625 C 36.851562 45.085938 36.527344 45.085938 36.144531 45.066406 C 36.015625 44.988281 35.953125 44.925781 35.878906 44.878906 C 31.621094 42.042969 27.359375 39.214844 23.109375 36.359375 C 22.714844 36.09375 22.449219 36.105469 22.070312 36.359375 C 18.242188 38.925781 14.402344 41.46875 10.574219 44.03125 C 10.082031 44.359375 9.527344 44.613281 9.140625 45.085938 C 8.785156 45.085938 8.433594 45.085938 8.039062 45.085938 M 35.09375 2.054688 C 26.761719 2.054688 18.429688 2.054688 10.097656 2.050781 C 9.523438 2.050781 9.523438 2.054688 9.523438 2.640625 C 9.523438 15.644531 9.523438 28.648438 9.527344 41.652344 C 9.527344 41.804688 9.464844 41.976562 9.59375 42.105469 C 9.703125 42.132812 9.765625 42.0625 9.835938 42.015625 C 11.0625 41.195312 12.289062 40.378906 13.515625 39.5625 C 16.234375 37.75 18.960938 35.941406 21.675781 34.121094 C 22.292969 33.707031 22.867188 33.691406 23.492188 34.113281 C 27.285156 36.660156 31.085938 39.191406 34.886719 41.722656 C 35.109375 41.871094 35.308594 42.070312 35.589844 42.113281 C 35.691406 41.9375 35.652344 41.773438 35.652344 41.617188 C 35.652344 39.023438 35.652344 36.433594 35.652344 33.839844 C 35.652344 23.441406 35.652344 13.046875 35.65625 2.648438 C 35.65625 2.304688 35.6875 1.96875 35.09375 2.054688 Z M 35.09375 2.054688 "/>
<path style=" stroke:none;fill-rule:nonzero;fill:rgb(0%,0%,0%);fill-opacity:1;" d="M 29.160156 22.636719 C 29.425781 24.101562 29.660156 25.539062 29.9375 26.964844 C 30.03125 27.425781 29.910156 27.785156 29.582031 28.054688 C 29.21875 28.355469 28.785156 28.316406 28.382812 28.113281 C 26.617188 27.238281 24.847656 26.363281 23.089844 25.464844 C 22.726562 25.277344 22.441406 25.277344 22.078125 25.460938 C 20.335938 26.355469 18.578125 27.21875 16.828125 28.09375 C 16.421875 28.296875 16 28.363281 15.628906 28.078125 C 15.261719 27.796875 15.144531 27.410156 15.238281 26.914062 C 15.601562 25.011719 15.910156 23.101562 16.261719 21.199219 C 16.304688 20.976562 16.269531 20.835938 16.117188 20.695312 C 14.933594 19.59375 13.746094 18.492188 12.5625 17.382812 C 12.199219 17.042969 11.832031 16.707031 11.507812 16.328125 C 10.972656 15.695312 11.363281 14.789062 12.238281 14.660156 C 13.789062 14.433594 15.347656 14.242188 16.902344 14.027344 C 17.40625 13.957031 17.90625 13.84375 18.410156 13.792969 C 18.695312 13.765625 18.816406 13.609375 18.925781 13.390625 C 19.691406 11.878906 20.460938 10.371094 21.234375 8.859375 C 21.382812 8.574219 21.535156 8.289062 21.707031 8.023438 C 22.164062 7.324219 23.140625 7.386719 23.535156 8.140625 C 24.425781 9.847656 25.320312 11.554688 26.1875 13.28125 C 26.359375 13.617188 26.570312 13.796875 26.929688 13.84375 C 28.484375 14.050781 30.039062 14.261719 31.589844 14.476562 C 32.109375 14.546875 32.628906 14.605469 33.136719 14.722656 C 33.878906 14.894531 34.167969 15.792969 33.652344 16.347656 C 32.90625 17.148438 32.070312 17.859375 31.265625 18.601562 C 30.5 19.304688 29.761719 20.03125 29.011719 20.746094 C 28.882812 20.867188 28.863281 21 28.902344 21.179688 C 29.003906 21.648438 29.066406 22.125 29.160156 22.636719 M 18.160156 22.140625 C 17.980469 23.195312 17.796875 24.25 17.617188 25.304688 C 17.816406 25.347656 17.925781 25.269531 18.042969 25.214844 C 19.335938 24.566406 20.632812 23.925781 21.921875 23.265625 C 22.378906 23.03125 22.800781 23.035156 23.257812 23.265625 C 24.503906 23.90625 25.765625 24.527344 27.023438 25.152344 C 27.175781 25.230469 27.320312 25.339844 27.53125 25.320312 C 27.542969 25.25 27.570312 25.179688 27.554688 25.113281 C 27.304688 23.757812 27.035156 22.40625 26.804688 21.046875 C 26.726562 20.578125 26.664062 20.070312 27.070312 19.6875 C 27.953125 18.855469 28.835938 18.023438 29.730469 17.207031 C 29.996094 16.964844 30.285156 16.757812 30.523438 16.417969 C 28.988281 16.136719 27.488281 15.964844 25.992188 15.769531 C 25.464844 15.699219 25.042969 15.523438 24.789062 15.023438 C 24.296875 14.0625 23.800781 13.101562 23.296875 12.144531 C 23.074219 11.726562 22.929688 11.257812 22.59375 10.902344 C 22.402344 11.046875 22.328125 11.242188 22.234375 11.421875 C 21.636719 12.589844 21.023438 13.753906 20.4375 14.933594 C 20.210938 15.394531 19.871094 15.660156 19.375 15.742188 C 19.101562 15.785156 18.828125 15.8125 18.554688 15.851562 C 17.261719 16.027344 15.972656 16.210938 14.632812 16.394531 C 14.699219 16.496094 14.722656 16.550781 14.761719 16.589844 C 15.824219 17.570312 16.882812 18.550781 17.945312 19.527344 C 18.226562 19.785156 18.40625 20.066406 18.40625 20.472656 C 18.40625 21.019531 18.269531 21.539062 18.160156 22.140625 Z M 18.160156 22.140625 "/>
</g>
</svg>
