<?xml version="1.0" encoding="UTF-8"?>
<svg xmlns="http://www.w3.org/2000/svg" xmlns:xlink="http://www.w3.org/1999/xlink" width="60px" height="54px" viewBox="0 0 60 54" version="1.1">
<g id="surface1">
<path style=" stroke:none;fill-rule:nonzero;fill:rgb(0%,0%,0%);fill-opacity:1;" d="M 12.582031 47.609375 C 10.851562 49.132812 9.144531 50.640625 7.4375 52.148438 C 7.417969 52.164062 7.398438 52.183594 7.378906 52.203125 C 6.726562 52.777344 6.65625 52.777344 6.082031 52.117188 C 5.054688 50.945312 4.035156 49.769531 3.015625 48.59375 C 2.546875 48.054688 2.550781 47.949219 3.101562 47.464844 C 5.25 45.574219 7.410156 43.691406 9.554688 41.792969 C 10.527344 40.9375 10.390625 41.152344 9.699219 40.347656 C 9.679688 40.324219 9.664062 40.304688 9.648438 40.28125 C 9.117188 39.644531 9.128906 39.542969 9.769531 39 C 9.988281 38.816406 10.195312 38.617188 10.414062 38.433594 C 10.648438 38.238281 10.882812 38.230469 11.097656 38.472656 C 11.324219 38.726562 11.542969 38.988281 11.769531 39.242188 C 11.9375 39.433594 12.136719 39.5 12.339844 39.324219 C 12.910156 38.835938 13.472656 38.339844 14.03125 37.84375 C 14.078125 37.800781 14.09375 37.726562 14.121094 37.675781 C 13.992188 37.449219 13.785156 37.472656 13.605469 37.492188 C 12.359375 37.617188 11.109375 37.496094 9.859375 37.511719 C 8.34375 37.527344 6.820312 37.582031 5.300781 37.492188 C 5.035156 37.476562 4.949219 37.371094 4.949219 37.117188 C 4.953125 35.234375 4.957031 33.355469 4.949219 31.476562 C 4.949219 31.101562 5.171875 31.105469 5.433594 31.105469 C 8 31.105469 10.570312 31.105469 13.136719 31.101562 C 13.746094 31.101562 14.359375 31.09375 14.96875 31.101562 C 15.265625 31.105469 15.390625 30.976562 15.382812 30.683594 C 15.375 30.394531 15.375 30.105469 15.386719 29.816406 C 15.40625 29.4375 15.597656 29.226562 15.988281 29.167969 C 16.359375 29.113281 16.75 29.28125 17.105469 29.074219 C 17.148438 28.863281 17.015625 28.726562 16.921875 28.582031 C 15.476562 26.402344 14.632812 24.023438 14.5625 21.382812 C 14.554688 21.105469 14.441406 20.898438 14.234375 20.710938 C 10.75 17.628906 7.273438 14.539062 3.792969 11.453125 C 2.347656 10.171875 1.554688 8.570312 1.480469 6.636719 C 1.4375 5.550781 1.707031 4.511719 2.261719 3.570312 C 2.699219 2.835938 3.554688 2.738281 4.222656 3.332031 C 6.171875 5.058594 8.113281 6.796875 10.0625 8.523438 C 12 10.242188 13.945312 11.957031 15.886719 13.671875 C 16.214844 13.964844 16.28125 13.953125 16.558594 13.511719 C 17.851562 11.441406 19.550781 9.796875 21.679688 8.617188 C 23.40625 7.664062 25.253906 7.117188 27.222656 6.96875 C 30.75 6.699219 33.910156 7.695312 36.714844 9.839844 C 38.214844 10.988281 39.40625 12.425781 40.324219 14.089844 C 40.394531 14.214844 40.429688 14.375 40.640625 14.457031 C 41.195312 13.976562 41.769531 13.480469 42.339844 12.976562 C 45.882812 9.859375 49.421875 6.738281 52.964844 3.621094 C 53.882812 2.8125 54.71875 3 55.246094 4.117188 C 56.464844 6.707031 55.714844 9.738281 53.417969 11.714844 C 51.117188 13.699219 48.855469 15.730469 46.570312 17.738281 C 45.1875 18.957031 43.808594 20.171875 42.414062 21.375 C 42.136719 21.613281 41.976562 21.871094 41.945312 22.238281 C 41.851562 23.28125 41.621094 24.292969 41.28125 25.28125 C 41.167969 25.601562 41.21875 25.796875 41.535156 25.984375 C 42.195312 26.375 42.460938 27.191406 42.195312 27.953125 C 42.105469 28.214844 42.128906 28.414062 42.261719 28.644531 C 42.636719 29.3125 43.007812 29.984375 43.339844 30.675781 C 43.503906 31.011719 43.714844 31.105469 44.070312 31.105469 C 48.460938 31.097656 52.847656 31.101562 57.234375 31.101562 C 58.074219 31.101562 58.503906 31.417969 58.675781 32.144531 C 58.742188 32.425781 58.675781 32.691406 58.59375 32.953125 C 57.84375 35.433594 56.152344 36.867188 53.671875 37.386719 C 52.96875 37.535156 52.246094 37.554688 51.523438 37.5 C 50.941406 37.457031 50.355469 37.542969 49.773438 37.519531 C 48.363281 37.457031 46.953125 37.566406 45.542969 37.5 C 44.796875 37.464844 44.050781 37.519531 43.304688 37.535156 C 43.210938 37.539062 43.109375 37.542969 43.046875 37.632812 C 43.039062 37.660156 43.019531 37.699219 43.03125 37.707031 C 43.597656 38.339844 44.265625 38.855469 44.90625 39.40625 C 45.070312 39.546875 45.207031 39.429688 45.324219 39.300781 C 45.542969 39.054688 45.753906 38.804688 45.976562 38.566406 C 46.277344 38.238281 46.4375 38.222656 46.769531 38.503906 C 47.074219 38.757812 47.363281 39.027344 47.664062 39.285156 C 47.933594 39.515625 47.953125 39.761719 47.71875 40.027344 C 47.511719 40.265625 47.320312 40.519531 47.097656 40.738281 C 46.839844 40.992188 46.863281 41.179688 47.128906 41.414062 C 48.09375 42.257812 49.046875 43.117188 50.003906 43.96875 C 51.390625 45.203125 52.777344 46.429688 54.164062 47.664062 C 54.484375 47.949219 54.492188 48.144531 54.207031 48.46875 C 53.0625 49.789062 51.914062 51.105469 50.761719 52.421875 C 50.480469 52.746094 50.328125 52.75 49.976562 52.4375 C 47.640625 50.367188 45.300781 48.296875 42.964844 46.222656 C 42.582031 45.882812 42.585938 45.882812 42.242188 46.289062 C 42.039062 46.527344 41.832031 46.761719 41.621094 46.996094 C 41.425781 47.214844 41.210938 47.253906 40.980469 47.050781 C 40.640625 46.753906 40.300781 46.457031 39.964844 46.15625 C 39.746094 45.957031 39.730469 45.738281 39.925781 45.511719 C 40.164062 45.230469 40.398438 44.945312 40.644531 44.667969 C 40.8125 44.476562 40.804688 44.308594 40.613281 44.136719 C 39.246094 42.925781 37.878906 41.710938 36.511719 40.5 C 36.164062 40.195312 36.078125 40.5 35.984375 40.746094 C 35.382812 42.367188 34.351562 43.613281 32.8125 44.398438 C 31.84375 44.890625 30.808594 45.15625 29.730469 45.265625 C 28.097656 45.429688 26.480469 45.386719 24.90625 44.824219 C 23.054688 44.167969 21.667969 42.96875 20.765625 41.203125 C 20.503906 40.691406 20.484375 40.683594 20.042969 41.066406 C 18.882812 42.074219 17.726562 43.097656 16.5625 44.105469 C 16.316406 44.320312 16.269531 44.496094 16.519531 44.746094 C 16.757812 44.984375 16.964844 45.257812 17.183594 45.523438 C 17.382812 45.769531 17.355469 46 17.121094 46.207031 C 16.800781 46.488281 16.480469 46.761719 16.164062 47.042969 C 15.921875 47.253906 15.695312 47.238281 15.488281 47.003906 C 15.242188 46.730469 14.996094 46.453125 14.765625 46.167969 C 14.597656 45.960938 14.453125 45.953125 14.257812 46.128906 C 13.710938 46.621094 13.15625 47.101562 12.582031 47.609375 M 35.625 31.566406 C 36.894531 30.691406 37.96875 29.617188 38.867188 28.359375 C 39.007812 28.164062 39.085938 27.980469 39.027344 27.71875 C 38.871094 27.027344 39.160156 26.265625 39.792969 25.972656 C 40.296875 25.738281 40.484375 25.363281 40.613281 24.890625 C 40.695312 24.601562 40.789062 24.316406 40.867188 24.023438 C 41.011719 23.480469 40.953125 23.398438 40.390625 23.394531 C 38.964844 23.390625 37.539062 23.394531 36.113281 23.394531 C 35.382812 23.394531 35.382812 23.390625 35.300781 24.105469 C 35.289062 24.230469 35.269531 24.351562 35.25 24.472656 C 35.199219 24.828125 35.324219 24.972656 35.699219 24.933594 C 36.6875 24.828125 37.652344 24.621094 38.617188 24.378906 C 38.773438 24.339844 38.933594 24.234375 39.117188 24.332031 C 39.0625 24.570312 38.882812 24.683594 38.730469 24.8125 C 37.835938 25.570312 36.808594 26.042969 35.648438 26.191406 C 35.242188 26.242188 35.097656 26.425781 35.070312 26.820312 C 35.011719 27.585938 34.914062 28.347656 34.691406 29.085938 C 34.640625 29.257812 34.609375 29.457031 34.410156 29.515625 C 34.28125 29.433594 34.300781 29.332031 34.292969 29.238281 C 34.210938 28.378906 34.121094 27.519531 34.0625 26.660156 C 34.042969 26.363281 33.957031 26.230469 33.644531 26.191406 C 32.773438 26.078125 31.957031 25.78125 31.214844 25.300781 C 30.8125 25.035156 30.417969 24.753906 30.125 24.355469 C 30.253906 24.246094 30.347656 24.304688 30.433594 24.328125 C 31.308594 24.585938 32.207031 24.730469 33.101562 24.886719 C 33.851562 25.019531 33.90625 24.976562 33.890625 24.234375 C 33.886719 24.140625 33.886719 24.042969 33.886719 23.949219 C 33.871094 23.433594 33.835938 23.390625 33.316406 23.390625 C 31.402344 23.386719 29.484375 23.394531 27.570312 23.375 C 27.179688 23.371094 27.0625 23.53125 27.011719 23.886719 C 26.621094 26.648438 23.855469 28.464844 21.214844 27.664062 C 19.316406 27.085938 18.21875 25.761719 17.910156 23.785156 C 17.863281 23.5 17.75 23.378906 17.464844 23.390625 C 17.015625 23.402344 16.566406 23.386719 16.117188 23.386719 C 15.5625 23.386719 15.523438 23.441406 15.660156 23.976562 C 16.140625 25.878906 16.984375 27.605469 18.242188 29.101562 C 20.871094 32.222656 24.230469 33.847656 28.296875 33.871094 C 30.945312 33.886719 33.378906 33.105469 35.625 31.566406 M 31.128906 44.238281 C 33.613281 43.542969 35.0625 41.875 35.605469 39.359375 C 35.636719 39.203125 35.726562 39.027344 35.574219 38.898438 C 35.414062 38.761719 35.261719 38.898438 35.125 38.96875 C 33.054688 40.054688 30.824219 40.480469 28.519531 40.488281 C 25.960938 40.5 23.507812 39.96875 21.207031 38.792969 C 21.085938 38.730469 20.949219 38.585938 20.800781 38.710938 C 20.679688 38.8125 20.753906 38.964844 20.785156 39.097656 C 21.398438 41.539062 22.796875 43.292969 25.203125 44.121094 C 27.136719 44.789062 29.101562 44.707031 31.128906 44.238281 M 43.410156 34.792969 C 46.222656 34.792969 49.03125 34.796875 51.84375 34.792969 C 53.265625 34.792969 54.382812 33.988281 54.847656 32.644531 C 55.0625 32.027344 54.960938 31.875 54.320312 31.875 C 51.15625 31.875 47.992188 31.882812 44.828125 31.871094 C 44.257812 31.871094 43.679688 31.792969 43.359375 32.433594 C 43.347656 32.457031 43.316406 32.472656 43.296875 32.488281 C 42.128906 33.410156 40.785156 33.707031 39.332031 33.632812 C 39.09375 33.621094 38.832031 33.519531 38.5625 33.765625 C 39.117188 34.257812 39.507812 34.882812 40.398438 34.8125 C 41.367188 34.734375 42.351562 34.792969 43.410156 34.792969 M 11.746094 14.765625 C 12.644531 15.5625 13.542969 16.359375 14.441406 17.148438 C 14.792969 17.460938 14.917969 17.425781 15.050781 16.960938 C 15.234375 16.316406 15.445312 15.679688 15.738281 15.074219 C 15.875 14.789062 15.820312 14.617188 15.585938 14.410156 C 12.445312 11.628906 9.308594 8.835938 6.171875 6.046875 C 6.003906 5.898438 5.855469 5.710938 5.628906 5.65625 C 4.644531 6.867188 4.765625 8.550781 5.953125 9.625 C 7.855469 11.339844 9.785156 13.027344 11.746094 14.765625 M 43.921875 39.574219 C 41.453125 37.386719 38.988281 35.203125 36.496094 32.992188 C 36.3125 33.3125 36.375 33.546875 36.40625 33.769531 C 36.523438 34.621094 36.644531 35.476562 36.621094 36.339844 C 36.609375 36.726562 36.757812 36.980469 37.039062 37.21875 C 37.648438 37.742188 38.242188 38.285156 38.84375 38.816406 C 39.992188 39.839844 41.140625 40.863281 42.296875 41.882812 C 42.683594 42.226562 42.792969 42.210938 43.128906 41.824219 C 43.429688 41.472656 43.734375 41.121094 44.042969 40.773438 C 44.628906 40.117188 44.609375 40.203125 43.921875 39.574219 M 48.871094 35.570312 C 46.183594 35.570312 43.5 35.570312 40.753906 35.570312 C 41.128906 36.28125 41.824219 36.71875 42.460938 36.71875 C 44.117188 36.71875 45.773438 36.71875 47.429688 36.722656 C 48.894531 36.722656 50.363281 36.707031 51.828125 36.746094 C 52.84375 36.773438 53.839844 36.703125 54.773438 36.273438 C 56.34375 35.558594 57.421875 34.394531 57.882812 32.691406 C 58.03125 32.144531 57.832031 31.890625 57.261719 31.875 C 56.949219 31.871094 56.636719 31.898438 56.328125 31.871094 C 55.917969 31.835938 55.761719 32 55.6875 32.40625 C 55.378906 34.074219 54.039062 35.320312 52.371094 35.511719 C 51.234375 35.640625 50.09375 35.539062 48.871094 35.570312 M 21.925781 33.0625 C 21.699219 32.9375 21.476562 32.804688 21.246094 32.683594 C 20.964844 32.539062 20.773438 32.597656 20.726562 32.945312 C 20.652344 33.527344 20.585938 34.113281 20.503906 34.695312 C 20.472656 34.917969 20.601562 35.019531 20.765625 35.105469 C 21.550781 35.523438 22.378906 35.824219 23.226562 36.085938 C 23.550781 36.1875 23.738281 36.0625 23.75 35.726562 C 23.765625 35.207031 23.761719 34.6875 23.757812 34.164062 C 23.753906 33.925781 23.59375 33.8125 23.390625 33.726562 C 22.917969 33.523438 22.449219 33.304688 21.925781 33.0625 M 7.222656 33.339844 C 6.738281 33.542969 6.589844 33.804688 6.621094 34.414062 C 6.640625 34.902344 6.898438 35.253906 7.375 35.351562 C 7.75 35.429688 7.875 35.632812 7.851562 35.984375 C 7.84375 36.121094 7.851562 36.257812 7.859375 36.394531 C 7.863281 36.546875 7.929688 36.679688 8.085938 36.691406 C 8.726562 36.742188 9.363281 36.734375 10.019531 36.703125 C 9.964844 36.4375 9.820312 36.324219 9.699219 36.199219 C 9.199219 35.695312 8.699219 35.191406 8.203125 34.6875 C 7.816406 34.292969 7.816406 34.292969 8.191406 33.910156 C 8.703125 33.398438 9.210938 32.886719 9.714844 32.367188 C 9.808594 32.277344 9.945312 32.179688 9.890625 32.023438 C 9.828125 31.839844 9.648438 31.882812 9.503906 31.878906 C 9.191406 31.875 8.878906 31.878906 8.566406 31.878906 C 7.855469 31.878906 7.835938 31.878906 7.859375 32.609375 C 7.871094 33.046875 7.734375 33.296875 7.222656 33.339844 M 27.925781 35.804688 C 27.925781 35.574219 27.925781 35.339844 27.921875 35.109375 C 27.917969 34.792969 27.75 34.625 27.449219 34.609375 C 26.59375 34.5625 25.757812 34.421875 24.929688 34.210938 C 24.644531 34.140625 24.484375 34.257812 24.484375 34.566406 C 24.484375 35.058594 24.496094 35.550781 24.476562 36.042969 C 24.464844 36.34375 24.613281 36.460938 24.871094 36.507812 C 25.5625 36.636719 26.257812 36.738281 26.960938 36.777344 C 27.90625 36.828125 27.90625 36.824219 27.925781 35.804688 M 28.644531 35.6875 C 28.644531 35.878906 28.65625 36.070312 28.648438 36.261719 C 28.632812 36.640625 28.792969 36.808594 29.179688 36.804688 C 30.007812 36.789062 30.824219 36.679688 31.636719 36.515625 C 31.921875 36.460938 32.050781 36.308594 32.039062 36.007812 C 32.023438 35.554688 32.046875 35.101562 32.039062 34.652344 C 32.027344 34.21875 31.925781 34.144531 31.511719 34.242188 C 30.8125 34.40625 30.109375 34.546875 29.390625 34.589844 C 28.714844 34.632812 28.648438 34.691406 28.644531 35.363281 C 28.644531 35.445312 28.644531 35.527344 28.644531 35.6875 M 31.628906 39.398438 C 31.933594 39.332031 32.042969 39.125 32.039062 38.828125 C 32.03125 38.457031 32.03125 38.085938 32.042969 37.71875 C 32.050781 37.398438 31.925781 37.253906 31.601562 37.316406 C 30.761719 37.480469 29.910156 37.554688 29.058594 37.617188 C 28.789062 37.636719 28.664062 37.78125 28.65625 38.035156 C 28.644531 38.460938 28.644531 38.886719 28.648438 39.308594 C 28.652344 39.574219 28.792969 39.722656 29.0625 39.707031 C 29.902344 39.652344 30.742188 39.605469 31.628906 39.398438 M 27.390625 37.570312 C 26.570312 37.566406 25.765625 37.4375 24.964844 37.296875 C 24.59375 37.230469 24.464844 37.363281 24.480469 37.722656 C 24.496094 38.09375 24.484375 38.464844 24.484375 38.835938 C 24.484375 39.089844 24.609375 39.253906 24.851562 39.308594 C 25.726562 39.515625 26.609375 39.652344 27.507812 39.675781 C 27.761719 39.679688 27.898438 39.574219 27.898438 39.320312 C 27.902344 38.910156 27.882812 38.5 27.894531 38.089844 C 27.898438 37.777344 27.789062 37.589844 27.390625 37.570312 M 33.648438 33.53125 C 33.558594 33.566406 33.476562 33.617188 33.386719 33.640625 C 32.976562 33.742188 32.8125 34.007812 32.816406 34.417969 C 32.824219 34.84375 32.804688 35.269531 32.808594 35.691406 C 32.8125 36 32.945312 36.167969 33.273438 36.054688 C 34.074219 35.777344 34.835938 35.417969 35.539062 34.9375 C 35.71875 34.816406 35.789062 34.65625 35.753906 34.445312 C 35.6875 34.011719 35.632812 33.578125 35.550781 33.148438 C 35.46875 32.742188 35.347656 32.695312 34.984375 32.875 C 34.558594 33.085938 34.132812 33.296875 33.648438 33.53125 M 33.652344 36.746094 C 32.78125 37.054688 32.78125 37.054688 32.816406 38 C 32.820312 38.175781 32.804688 38.355469 32.804688 38.53125 C 32.8125 38.941406 32.917969 39.027344 33.300781 38.914062 C 33.808594 38.761719 34.296875 38.554688 34.753906 38.285156 C 36.042969 37.523438 35.847656 37.871094 35.867188 36.324219 C 35.867188 36.296875 35.867188 36.269531 35.867188 36.242188 C 35.835938 35.847656 35.722656 35.773438 35.375 35.960938 C 34.835938 36.25 34.285156 36.511719 33.652344 36.746094 M 20.484375 36.753906 C 20.523438 37.039062 20.375 37.375 20.683594 37.585938 C 21.484375 38.136719 22.363281 38.523438 23.277344 38.828125 C 23.453125 38.882812 23.660156 38.867188 23.710938 38.644531 C 23.816406 38.160156 23.8125 37.667969 23.703125 37.183594 C 23.664062 37.015625 23.496094 36.976562 23.355469 36.933594 C 22.539062 36.6875 21.734375 36.398438 20.949219 36.0625 C 20.601562 35.910156 20.488281 35.996094 20.476562 36.390625 C 20.472656 36.484375 20.480469 36.582031 20.484375 36.753906 M 53.839844 9.699219 C 52.519531 8.023438 52.640625 6.734375 54.253906 5.335938 C 54.328125 5.269531 54.441406 5.226562 54.441406 5.082031 C 54.171875 5.039062 53.859375 5.078125 53.652344 4.914062 C 53.128906 4.484375 52.761719 4.722656 52.402344 5.132812 C 52.367188 5.171875 52.320312 5.207031 52.277344 5.238281 C 52.046875 5.40625 52.039062 5.574219 52.199219 5.824219 C 53.046875 7.179688 52.941406 8.578125 51.902344 9.800781 C 51.6875 10.054688 51.421875 10.265625 51.179688 10.496094 C 52.058594 10.339844 52.890625 10.171875 53.742188 10.105469 C 54 10.085938 54.03125 9.941406 53.839844 9.699219 M 51.324219 48.574219 C 50.820312 49.164062 50.320312 49.761719 49.804688 50.34375 C 49.613281 50.558594 49.675781 50.75 49.808594 50.933594 C 49.949219 51.125 50.132812 51.320312 50.386719 51.199219 C 50.777344 51.015625 51.199219 50.886719 51.472656 50.484375 C 51.734375 50.105469 52.050781 49.753906 52.386719 49.4375 C 52.75 49.09375 52.773438 48.664062 52.769531 48.230469 C 52.769531 47.976562 52.621094 47.757812 52.367188 47.660156 C 52.125 47.566406 52.035156 47.796875 51.910156 47.921875 C 51.714844 48.113281 51.542969 48.324219 51.324219 48.574219 M 2.394531 7.910156 C 2.5625 8.375 2.65625 8.875 3.019531 9.304688 C 3.652344 8.636719 4.054688 7.921875 3.871094 7.023438 C 3.703125 6.203125 3.144531 5.664062 2.402344 5.230469 C 2.144531 6.144531 2.1875 6.992188 2.394531 7.910156 M 12.6875 18.320312 C 13.007812 18.4375 12.964844 18.191406 12.941406 18.03125 C 12.765625 16.902344 12.300781 15.960938 11.199219 15.488281 C 10.589844 15.226562 9.953125 15.085938 9.15625 15.230469 C 10.378906 16.300781 11.511719 17.292969 12.6875 18.320312 M 4.132812 10.414062 C 4.058594 10.4375 3.964844 10.386719 3.875 10.53125 C 5.085938 11.601562 6.304688 12.679688 7.523438 13.753906 C 7.566406 13.71875 7.609375 13.683594 7.652344 13.652344 C 7.609375 13.09375 7.421875 12.578125 7.207031 12.0625 C 6.9375 11.410156 6.457031 11.011719 5.804688 10.785156 C 5.277344 10.601562 4.734375 10.492188 4.132812 10.414062 M 19.671875 32.90625 C 19.722656 32.859375 19.773438 32.8125 19.824219 32.769531 C 20.035156 32.59375 20.105469 32.355469 20.019531 32.109375 C 19.929688 31.847656 19.679688 31.878906 19.464844 31.878906 C 18.992188 31.875 18.515625 31.882812 18.042969 31.875 C 17.757812 31.867188 17.625 31.976562 17.628906 32.28125 C 17.644531 32.894531 17.632812 33.511719 17.636719 34.125 C 17.636719 34.242188 17.601562 34.390625 17.746094 34.449219 C 17.882812 34.5 17.972656 34.394531 18.066406 34.3125 C 18.585938 33.859375 19.109375 33.402344 19.671875 32.90625 M 47.972656 14.886719 C 48.914062 14.902344 48.984375 14.839844 49.140625 13.886719 C 49.152344 13.816406 49.175781 13.753906 49.183594 13.6875 C 49.28125 13.097656 49.488281 12.539062 49.691406 11.941406 C 49.273438 12.140625 46.417969 14.664062 46.199219 15.03125 C 46.789062 15.0625 47.335938 14.832031 47.972656 14.886719 M 39.109375 40.15625 C 38.464844 39.324219 37.097656 38.902344 36.507812 39.359375 C 36.519531 39.398438 36.519531 39.445312 36.542969 39.472656 C 37.359375 40.300781 38.253906 41.035156 39.132812 41.789062 C 39.351562 41.972656 39.527344 41.867188 39.523438 41.574219 C 39.519531 41.085938 39.40625 40.621094 39.109375 40.15625 M 13.707031 31.898438 C 12.382812 31.789062 10.761719 31.855469 10.476562 32.0625 C 10.96875 32.644531 11.515625 33.167969 12.074219 33.675781 C 12.1875 33.777344 12.308594 33.710938 12.402344 33.621094 C 12.855469 33.171875 13.3125 32.71875 13.757812 32.261719 C 13.859375 32.160156 13.9375 32.039062 13.707031 31.898438 M 12.1875 34.851562 C 11.480469 35.339844 10.972656 36.035156 10.332031 36.625 C 10.410156 36.671875 10.445312 36.707031 10.476562 36.707031 C 11.519531 36.710938 12.5625 36.722656 13.605469 36.703125 C 13.90625 36.699219 13.898438 36.484375 13.726562 36.3125 C 13.242188 35.820312 12.800781 35.277344 12.1875 34.851562 M 12.96875 34.179688 C 12.964844 34.234375 12.9375 34.300781 12.960938 34.335938 C 13.238281 34.761719 13.605469 35.105469 13.996094 35.417969 C 14.160156 35.546875 14.332031 35.453125 14.46875 35.316406 C 14.707031 35.074219 14.945312 34.828125 15.1875 34.59375 C 15.398438 34.394531 15.410156 34.207031 15.203125 34 C 14.941406 33.742188 14.679688 33.484375 14.425781 33.21875 C 14.234375 33.011719 14.0625 33.03125 13.878906 33.226562 C 13.585938 33.53125 13.289062 33.832031 12.96875 34.179688 M 11.3125 34.042969 C 11.035156 33.765625 10.761719 33.484375 10.480469 33.207031 C 10.339844 33.066406 10.203125 33.03125 10.019531 33.164062 C 8.886719 33.988281 8.867188 34.433594 9.925781 35.324219 C 9.9375 35.335938 9.949219 35.34375 9.957031 35.351562 C 10.148438 35.542969 10.335938 35.527344 10.523438 35.339844 C 10.78125 35.082031 11.039062 34.820312 11.292969 34.558594 C 11.429688 34.417969 11.496094 34.261719 11.3125 34.042969 M 41.921875 18.78125 C 41.925781 19.492188 41.9375 19.503906 42.617188 19.5 C 42.792969 19.496094 42.96875 19.503906 43.144531 19.5 C 43.507812 19.488281 43.726562 19.324219 43.757812 18.9375 C 43.8125 18.292969 43.941406 17.664062 44.164062 17.058594 C 44.195312 16.972656 44.257812 16.878906 44.089844 16.777344 C 43.359375 17.394531 42.59375 17.992188 41.921875 18.78125 M 14.96875 44.113281 C 14.492188 43.597656 14.101562 42.972656 13.289062 42.734375 C 13.332031 43.011719 13.296875 43.214844 13.441406 43.410156 C 13.902344 44.039062 14.40625 44.625 14.953125 45.179688 C 15.09375 45.324219 15.273438 45.4375 15.453125 45.285156 C 15.628906 45.128906 15.601562 44.910156 15.46875 44.726562 C 15.324219 44.527344 15.160156 44.34375 14.96875 44.113281 M 50.785156 46.789062 C 51.035156 46.671875 51.351562 46.703125 51.578125 46.433594 C 51.199219 45.972656 50.738281 45.613281 50.28125 45.257812 C 50.144531 45.152344 49.992188 45.253906 49.96875 45.402344 C 49.890625 45.933594 49.710938 46.453125 49.777344 47.0625 C 50.125 46.96875 50.421875 46.890625 50.785156 46.789062 M 45.308594 45.570312 C 45.300781 45.425781 45.363281 45.269531 45.226562 45.105469 C 44.738281 45.167969 44.238281 45.292969 43.753906 45.457031 C 43.492188 45.546875 43.5625 45.726562 43.710938 45.863281 C 44.039062 46.167969 44.375 46.472656 44.726562 46.746094 C 44.984375 46.949219 45.140625 46.875 45.199219 46.539062 C 45.25 46.242188 45.269531 45.941406 45.308594 45.570312 M 17.070312 40.511719 C 16.558594 40.984375 15.984375 41.386719 15.476562 42.003906 C 16.019531 42.117188 16.453125 42.289062 16.878906 42.492188 C 17.105469 42.597656 17.171875 42.429688 17.167969 42.242188 C 17.15625 41.695312 17.15625 41.152344 17.320312 40.621094 C 17.375 40.441406 17.308594 40.339844 17.070312 40.511719 M 47.558594 42.816406 C 47.324219 42.613281 47.09375 42.398438 46.851562 42.207031 C 46.691406 42.078125 46.535156 42.089844 46.496094 42.328125 C 46.429688 42.742188 46.371094 43.160156 46.335938 43.582031 C 46.316406 43.832031 46.449219 43.964844 46.71875 43.890625 C 46.941406 43.832031 47.167969 43.785156 47.382812 43.710938 C 47.601562 43.640625 47.925781 43.691406 47.984375 43.390625 C 48.039062 43.125 47.746094 43.023438 47.558594 42.816406 M 48.332031 49.925781 C 48.492188 49.949219 48.558594 49.84375 48.578125 49.71875 C 48.664062 49.226562 48.769531 48.734375 48.730469 48.179688 C 48.261719 48.320312 47.820312 48.445312 47.382812 48.585938 C 47.085938 48.679688 47.0625 48.859375 47.289062 49.058594 C 47.613281 49.347656 47.949219 49.625 48.332031 49.925781 M 46.097656 45.363281 C 46.117188 45.71875 45.929688 46.074219 46.089844 46.546875 C 46.6875 45.859375 47.234375 45.230469 47.851562 44.519531 C 47.339844 44.46875 47.019531 44.636719 46.679688 44.6875 C 46.308594 44.738281 46.117188 44.917969 46.097656 45.363281 M 44.234375 44.515625 C 44.535156 44.441406 44.839844 44.375 45.140625 44.292969 C 45.269531 44.261719 45.429688 44.230469 45.46875 44.082031 C 45.582031 43.613281 45.671875 43.140625 45.597656 42.519531 C 44.921875 43.167969 44.410156 43.792969 43.898438 44.40625 C 44.007812 44.539062 44.09375 44.527344 44.234375 44.515625 M 51.027344 47.792969 C 51.074219 47.71875 51.179688 47.660156 51.070312 47.515625 C 50.671875 47.566406 50.28125 47.722656 49.882812 47.835938 C 49.792969 47.863281 49.664062 47.902344 49.640625 47.96875 C 49.480469 48.453125 49.410156 48.949219 49.425781 49.449219 C 49.464844 49.464844 49.503906 49.476562 49.542969 49.492188 C 50.027344 48.9375 50.507812 48.386719 51.027344 47.792969 M 9.523438 13.804688 C 9.15625 13.5 8.847656 13.117188 8.292969 12.832031 C 8.398438 13.375 8.476562 13.808594 8.5625 14.238281 C 8.578125 14.320312 8.652344 14.390625 8.738281 14.386719 C 9.144531 14.382812 9.554688 14.433594 9.972656 14.347656 C 9.898438 14.078125 9.707031 13.980469 9.523438 13.804688 M 48.894531 47.253906 C 48.996094 46.816406 49.105469 46.378906 49.015625 45.804688 C 48.476562 46.492188 47.902344 46.996094 47.429688 47.734375 C 47.996094 47.617188 48.4375 47.511719 48.894531 47.253906 M 3.851562 4.984375 C 3.699219 5.054688 3.582031 5.136719 3.726562 5.320312 C 3.949219 5.605469 4.175781 5.886719 4.410156 6.183594 C 4.59375 5.878906 4.753906 5.59375 4.933594 5.320312 C 5.042969 5.152344 5.007812 5.03125 4.875 4.890625 C 4.644531 4.648438 4.433594 4.484375 4.148438 4.816406 C 4.089844 4.886719 3.984375 4.914062 3.851562 4.984375 M 4.59375 48.355469 C 4.339844 48.398438 4.449219 48.539062 4.527344 48.644531 C 4.90625 49.164062 5.457031 49.519531 5.816406 50.054688 C 5.855469 50.113281 5.9375 50.164062 6.054688 50.128906 C 6.175781 49.851562 6.367188 49.5625 5.859375 49.4375 C 5.753906 49.410156 5.636719 49.308594 5.660156 49.203125 C 5.738281 48.875 5.429688 48.777344 5.324219 48.5625 C 5.164062 48.238281 4.890625 48.359375 4.59375 48.355469 M 17.648438 30.929688 C 17.839844 31.09375 18.457031 31.167969 18.625 31.050781 C 18.730469 30.976562 18.765625 30.855469 18.695312 30.765625 C 18.417969 30.394531 18.097656 30.0625 17.703125 29.707031 C 17.589844 30.15625 17.644531 30.511719 17.648438 30.929688 M 41.835938 42.792969 C 41.675781 42.769531 41.519531 42.722656 41.359375 42.722656 C 41.109375 42.722656 40.78125 42.664062 40.671875 42.933594 C 40.550781 43.230469 40.898438 43.34375 41.0625 43.523438 C 41.269531 43.75 41.480469 43.730469 41.671875 43.488281 C 41.757812 43.382812 41.851562 43.289062 41.941406 43.1875 C 42.0625 43.046875 42.066406 42.921875 41.835938 42.792969 M 14.214844 19.054688 C 14.617188 18.964844 14.800781 18.714844 14.628906 18.414062 C 14.4375 18.074219 14.125 17.839844 13.742188 17.65625 C 13.667969 18.089844 13.769531 18.449219 13.824219 18.8125 C 13.847656 18.976562 13.984375 19.054688 14.214844 19.054688 M 37.835938 32.773438 C 37.882812 32.5 37.996094 32.210938 37.78125 31.964844 C 37.652344 31.816406 36.839844 31.832031 36.785156 31.976562 C 36.660156 32.320312 37.015625 32.378906 37.164062 32.554688 C 37.242188 32.648438 37.347656 32.714844 37.445312 32.785156 C 37.554688 32.867188 37.667969 32.957031 37.835938 32.773438 M 15.378906 32.582031 C 15.382812 31.867188 15.09375 31.679688 14.429688 31.980469 C 14.519531 32.210938 14.933594 32.691406 15.09375 32.769531 C 15.238281 32.839844 15.324219 32.792969 15.378906 32.582031 M 15.273438 35.785156 C 14.890625 35.882812 14.558594 36.253906 14.503906 36.640625 C 15.226562 36.863281 15.449219 36.695312 15.371094 35.972656 C 15.367188 35.921875 15.335938 35.871094 15.273438 35.785156 M 4.691406 9.738281 C 4.792969 9.746094 4.90625 9.820312 4.980469 9.671875 C 4.796875 9.351562 4.609375 9.03125 4.394531 8.660156 C 4.21875 9.011719 3.988281 9.246094 3.898438 9.570312 C 4.144531 9.707031 4.394531 9.671875 4.691406 9.738281 M 41.566406 30.941406 C 41.789062 30.863281 41.890625 30.695312 41.882812 30.472656 C 41.878906 30.207031 41.738281 30.011719 41.515625 29.875 C 41.414062 29.808594 41.304688 29.804688 41.21875 29.894531 C 41.03125 30.082031 41.164062 30.300781 41.238281 30.460938 C 41.3125 30.625 41.144531 30.957031 41.566406 30.941406 M 2.78125 4.207031 C 2.746094 4.324219 2.785156 4.40625 2.90625 4.410156 C 3.261719 4.421875 3.597656 4.378906 3.855469 4.085938 C 3.453125 3.550781 3.132812 3.582031 2.78125 4.207031 M 40.339844 41.9375 C 40.515625 42.125 40.683594 42.035156 40.835938 41.910156 C 40.9375 41.824219 40.902344 41.707031 40.824219 41.621094 C 40.71875 41.503906 40.617188 41.324219 40.4375 41.375 C 40.226562 41.4375 40.320312 41.648438 40.308594 41.800781 C 40.304688 41.824219 40.3125 41.851562 40.339844 41.9375 M 19.160156 38.75 C 19.351562 38.925781 19.558594 38.824219 19.75 38.753906 C 19.894531 38.703125 19.894531 38.566406 19.847656 38.445312 C 19.796875 38.296875 19.683594 38.28125 19.554688 38.351562 C 19.398438 38.433594 19.269531 38.550781 19.160156 38.75 Z M 19.160156 38.75 "/>
<path style=" stroke:none;fill-rule:nonzero;fill:rgb(0%,0%,0%);fill-opacity:1;" d="M 28.726562 28.824219 C 29.429688 29.15625 29.792969 29.707031 29.75 30.441406 C 29.710938 31.152344 29.328125 31.675781 28.632812 31.914062 C 27.992188 32.132812 27.265625 31.933594 26.863281 31.425781 C 26.402344 30.847656 26.347656 30.132812 26.710938 29.507812 C 27.054688 28.921875 27.757812 28.601562 28.425781 28.734375 C 28.519531 28.75 28.605469 28.785156 28.726562 28.824219 Z M 28.726562 28.824219 "/>
</g>
</svg>
