<?xml version="1.0" encoding="UTF-8"?>
<svg xmlns="http://www.w3.org/2000/svg" xmlns:xlink="http://www.w3.org/1999/xlink" width="45px" height="45px" viewBox="0 0 45 45" version="1.1">
<g id="surface1">
<path style=" stroke:none;fill-rule:nonzero;fill:rgb(99.607843%,99.215686%,99.215686%);fill-opacity:1;" d="M 0.199219 21.601562 C 0.199219 18.597656 0.199219 15.589844 0.261719 12.527344 C 0.382812 12.621094 0.4375 12.777344 0.503906 12.929688 C 1.324219 14.765625 3.183594 15.75 5.050781 15.34375 C 6.992188 14.921875 8.261719 13.3125 8.222656 11.320312 C 8.1875 9.554688 6.863281 7.949219 5.167969 7.613281 C 3.074219 7.199219 1.253906 8.15625 0.457031 10.089844 C 0.382812 10.265625 0.285156 10.429688 0.199219 10.601562 C 0.199219 7.136719 0.199219 3.675781 0.199219 0.214844 C 15.199219 0.210938 30.199219 0.210938 45.199219 0.210938 C 45.199219 2.886719 45.199219 5.550781 45.144531 8.277344 C 44.855469 8.113281 44.621094 7.886719 44.34375 7.632812 C 44.300781 7.605469 44.203125 7.613281 44.113281 7.582031 C 43.890625 7.546875 43.757812 7.527344 43.625 7.527344 C 33.746094 7.527344 23.867188 7.527344 13.988281 7.53125 C 13.726562 7.53125 13.460938 7.578125 13.148438 7.601562 C 13.070312 7.609375 13.039062 7.625 12.9375 7.652344 C 12.632812 8.070312 12.210938 8.46875 12.199219 8.882812 C 12.136719 10.652344 12.199219 12.429688 12.207031 14.25 C 12.199219 14.300781 12.234375 14.390625 12.234375 14.457031 C 12.5625 14.800781 12.886719 15.078125 13.253906 15.371094 C 13.300781 15.390625 13.394531 15.375 13.484375 15.390625 C 21.328125 15.410156 29.078125 15.417969 36.824219 15.414062 C 39.152344 15.414062 41.480469 15.390625 43.851562 15.386719 C 43.898438 15.394531 43.992188 15.371094 44.0625 15.378906 C 44.488281 15.125 44.84375 14.863281 45.199219 14.601562 C 45.199219 16.203125 45.199219 17.808594 45.160156 19.449219 C 44.769531 18.753906 44.15625 18.582031 43.390625 18.585938 C 38.730469 18.601562 34.070312 18.59375 29.410156 18.59375 C 24.25 18.59375 19.089844 18.597656 13.929688 18.589844 C 13.148438 18.589844 12.457031 18.695312 12.21875 19.652344 C 12.199219 19.699219 12.214844 19.796875 12.195312 19.886719 C 12.167969 21.605469 12.140625 23.234375 12.179688 24.859375 C 12.1875 25.253906 12.40625 25.648438 12.550781 26.09375 C 12.636719 26.179688 12.703125 26.210938 12.78125 26.21875 C 12.792969 26.199219 12.765625 26.242188 12.800781 26.292969 C 13.027344 26.382812 13.226562 26.417969 13.507812 26.476562 C 23.523438 26.507812 33.445312 26.519531 43.371094 26.5 C 43.855469 26.5 44.335938 26.191406 44.871094 26 C 45.015625 25.917969 45.109375 25.859375 45.199219 25.800781 C 45.199219 27.472656 45.199219 29.140625 45.167969 30.847656 C 44.757812 30.597656 44.375 30.3125 43.945312 30.015625 C 43.898438 30.003906 43.804688 30.023438 43.714844 30.007812 C 41.890625 29.988281 40.15625 29.96875 38.425781 29.996094 C 37.582031 30.007812 36.976562 30.605469 37.015625 31.355469 C 37.0625 32.179688 37.539062 32.625 38.359375 32.667969 C 38.792969 32.695312 39.226562 32.683594 39.65625 32.683594 C 40.570312 32.683594 41.484375 32.683594 42.398438 32.683594 C 42.398438 33.601562 42.398438 34.351562 42.398438 35.125 C 33.203125 35.125 24.0625 35.125 14.882812 35.125 C 14.882812 34.320312 14.882812 33.570312 14.882812 32.6875 C 15.3125 32.6875 15.703125 32.6875 16.09375 32.6875 C 20.6875 32.6875 25.28125 32.675781 29.878906 32.695312 C 30.777344 32.699219 31.339844 32.363281 31.453125 31.449219 C 31.546875 30.660156 31.171875 30.183594 30.347656 30.023438 C 30.300781 30.007812 30.207031 30.023438 30.113281 30.007812 C 24.480469 30.003906 18.9375 30.015625 13.347656 30.019531 C 13.300781 30.011719 13.210938 30.046875 13.144531 30.050781 C 12.796875 30.371094 12.515625 30.691406 12.21875 31.054688 C 12.199219 31.097656 12.214844 31.195312 12.191406 31.289062 C 12.167969 33.039062 12.101562 34.699219 12.199219 36.347656 C 12.230469 36.832031 12.726562 37.289062 13.054688 37.78125 C 13.132812 37.800781 13.164062 37.796875 13.289062 37.824219 C 23.457031 37.859375 33.535156 37.863281 43.617188 37.867188 C 43.8125 37.867188 44.007812 37.8125 44.269531 37.785156 C 44.394531 37.726562 44.457031 37.671875 44.578125 37.609375 C 44.824219 37.398438 45.011719 37.199219 45.199219 37 C 45.199219 39.730469 45.199219 42.460938 45.199219 45.195312 C 30.222656 45.195312 15.25 45.195312 0.199219 45.195312 C 0.199219 41.796875 0.199219 38.390625 0.257812 34.933594 C 0.359375 35.003906 0.390625 35.132812 0.4375 35.257812 C 1.214844 37.203125 2.980469 38.167969 5.089844 37.796875 C 6.835938 37.492188 8.191406 35.875 8.222656 34.054688 C 8.257812 32.109375 7.007812 30.503906 5.125 30.078125 C 3.222656 29.644531 1.367188 30.589844 0.527344 32.417969 C 0.433594 32.617188 0.308594 32.804688 0.199219 33 C 0.199219 29.929688 0.199219 26.859375 0.265625 23.71875 C 0.414062 23.832031 0.492188 24.011719 0.582031 24.191406 C 1.445312 25.96875 3.242188 26.820312 5.230469 26.394531 C 6.953125 26.019531 8.234375 24.371094 8.222656 22.539062 C 8.214844 20.652344 6.960938 19.101562 5.105469 18.683594 C 3.257812 18.265625 1.402344 19.1875 0.570312 20.929688 C 0.457031 21.160156 0.324219 21.375 0.199219 21.601562 Z M 0.199219 21.601562 "/>
<path style=" stroke:none;fill-rule:nonzero;fill:rgb(70.588237%,25.490198%,29.411766%);fill-opacity:1;" d="M 12.234375 19.609375 C 12.457031 18.695312 13.148438 18.589844 13.929688 18.589844 C 19.089844 18.597656 24.25 18.59375 29.410156 18.59375 C 34.070312 18.59375 38.730469 18.601562 43.390625 18.585938 C 44.15625 18.582031 44.769531 18.753906 45.160156 19.542969 C 45.199219 21.472656 45.199219 23.339844 45.140625 25.332031 C 44.992188 25.644531 44.90625 25.835938 44.816406 26.027344 C 44.335938 26.191406 43.855469 26.5 43.371094 26.5 C 33.445312 26.519531 23.523438 26.507812 13.476562 26.425781 C 13.15625 26.316406 12.960938 26.277344 12.765625 26.242188 C 12.765625 26.242188 12.792969 26.199219 12.757812 26.167969 C 12.660156 26.109375 12.59375 26.074219 12.53125 26.042969 C 12.40625 25.648438 12.1875 25.253906 12.179688 24.859375 C 12.140625 23.234375 12.167969 21.605469 12.226562 19.871094 C 12.289062 19.746094 12.320312 19.71875 12.316406 19.710938 C 12.292969 19.675781 12.261719 19.640625 12.234375 19.609375 M 29.699219 23.792969 C 33.917969 23.792969 38.136719 23.792969 42.339844 23.792969 C 42.339844 22.902344 42.339844 22.160156 42.339844 21.441406 C 33.136719 21.441406 24.027344 21.441406 14.882812 21.441406 C 14.882812 22.238281 14.882812 22.957031 14.882812 23.792969 C 19.792969 23.792969 24.648438 23.792969 29.699219 23.792969 Z M 29.699219 23.792969 "/>
<path style=" stroke:none;fill-rule:nonzero;fill:rgb(70.588237%,25.882354%,29.803923%);fill-opacity:1;" d="M 12.214844 14.203125 C 12.199219 12.429688 12.136719 10.652344 12.199219 8.882812 C 12.210938 8.46875 12.632812 8.070312 12.960938 7.679688 C 13.101562 7.664062 13.148438 7.636719 13.199219 7.605469 C 13.460938 7.578125 13.726562 7.53125 13.988281 7.53125 C 23.867188 7.527344 33.746094 7.527344 43.625 7.527344 C 43.757812 7.527344 43.890625 7.546875 44.125 7.613281 C 44.230469 7.675781 44.308594 7.710938 44.308594 7.710938 C 44.308594 7.710938 44.386719 7.660156 44.386719 7.660156 C 44.621094 7.886719 44.855469 8.113281 45.144531 8.371094 C 45.199219 10.402344 45.199219 12.410156 45.199219 14.507812 C 44.84375 14.863281 44.488281 15.125 44.042969 15.347656 C 43.90625 15.332031 43.855469 15.355469 43.804688 15.378906 C 41.480469 15.390625 39.152344 15.414062 36.824219 15.414062 C 29.078125 15.417969 21.328125 15.410156 13.472656 15.363281 C 13.304688 15.269531 13.253906 15.28125 13.210938 15.355469 C 12.886719 15.078125 12.5625 14.800781 12.261719 14.4375 C 12.265625 14.300781 12.238281 14.253906 12.214844 14.203125 M 41.847656 10.214844 C 32.867188 10.214844 23.886719 10.214844 14.890625 10.214844 C 14.890625 11.085938 14.890625 11.804688 14.890625 12.5625 C 24.085938 12.5625 33.222656 12.5625 42.625 12.5625 C 42.40625 11.691406 42.222656 10.957031 41.847656 10.214844 Z M 41.847656 10.214844 "/>
<path style=" stroke:none;fill-rule:nonzero;fill:rgb(70.19608%,25.098041%,29.019609%);fill-opacity:1;" d="M 30.390625 30.035156 C 31.171875 30.183594 31.546875 30.660156 31.453125 31.449219 C 31.339844 32.363281 30.777344 32.699219 29.878906 32.695312 C 25.28125 32.675781 20.6875 32.6875 16.09375 32.6875 C 15.703125 32.6875 15.3125 32.6875 14.882812 32.6875 C 14.882812 33.570312 14.882812 34.320312 14.882812 35.125 C 24.0625 35.125 33.203125 35.125 42.398438 35.125 C 42.398438 34.351562 42.398438 33.601562 42.398438 32.683594 C 41.484375 32.683594 40.570312 32.683594 39.65625 32.683594 C 39.226562 32.683594 38.792969 32.695312 38.359375 32.667969 C 37.539062 32.625 37.0625 32.179688 37.015625 31.355469 C 36.976562 30.605469 37.582031 30.007812 38.425781 29.996094 C 40.15625 29.96875 41.890625 29.988281 43.730469 30.039062 C 43.890625 30.066406 43.941406 30.046875 43.992188 30.027344 C 44.375 30.3125 44.757812 30.597656 45.167969 30.941406 C 45.199219 32.9375 45.199219 34.875 45.199219 36.90625 C 45.011719 37.199219 44.824219 37.398438 44.515625 37.617188 C 44.332031 37.6875 44.265625 37.738281 44.203125 37.785156 C 44.007812 37.8125 43.8125 37.867188 43.617188 37.867188 C 33.535156 37.863281 23.457031 37.859375 13.273438 37.789062 C 13.117188 37.738281 13.0625 37.75 13.007812 37.757812 C 12.726562 37.289062 12.230469 36.832031 12.199219 36.347656 C 12.101562 34.699219 12.167969 33.039062 12.222656 31.273438 C 12.289062 31.148438 12.320312 31.121094 12.3125 31.113281 C 12.292969 31.074219 12.261719 31.042969 12.234375 31.007812 C 12.515625 30.691406 12.796875 30.371094 13.164062 30.078125 C 13.253906 30.097656 13.339844 30.105469 13.339844 30.105469 C 13.339844 30.105469 13.394531 30.027344 13.394531 30.027344 C 18.9375 30.015625 24.480469 30.003906 30.128906 30.039062 C 30.289062 30.070312 30.339844 30.050781 30.390625 30.035156 Z M 30.390625 30.035156 "/>
<path style=" stroke:none;fill-rule:nonzero;fill:rgb(70.588237%,25.882354%,29.803923%);fill-opacity:1;" d="M 0.199219 21.691406 C 0.324219 21.375 0.457031 21.160156 0.570312 20.929688 C 1.402344 19.1875 3.257812 18.265625 5.105469 18.683594 C 6.960938 19.101562 8.214844 20.652344 8.222656 22.539062 C 8.234375 24.371094 6.953125 26.019531 5.230469 26.394531 C 3.242188 26.820312 1.445312 25.96875 0.582031 24.191406 C 0.492188 24.011719 0.414062 23.832031 0.265625 23.625 C 0.199219 22.992188 0.199219 22.386719 0.199219 21.691406 M 5.328125 23.21875 C 5.386719 23.0625 5.539062 22.875 5.492188 22.765625 C 5.308594 22.3125 5.15625 21.648438 4.8125 21.511719 C 4.394531 21.34375 3.652344 21.464844 3.320312 21.761719 C 3.046875 22.003906 2.953125 22.839844 3.164062 23.140625 C 3.417969 23.5 4.074219 23.617188 4.578125 23.726562 C 4.757812 23.765625 5.011719 23.476562 5.328125 23.21875 Z M 5.328125 23.21875 "/>
<path style=" stroke:none;fill-rule:nonzero;fill:rgb(70.588237%,25.882354%,29.803923%);fill-opacity:1;" d="M 0.199219 10.691406 C 0.285156 10.429688 0.382812 10.265625 0.457031 10.089844 C 1.253906 8.15625 3.074219 7.199219 5.167969 7.613281 C 6.863281 7.949219 8.1875 9.554688 8.222656 11.320312 C 8.261719 13.3125 6.992188 14.921875 5.050781 15.34375 C 3.183594 15.75 1.324219 14.765625 0.503906 12.929688 C 0.4375 12.777344 0.382812 12.621094 0.261719 12.433594 C 0.199219 11.859375 0.199219 11.320312 0.199219 10.691406 M 2.96875 11.648438 C 3.128906 12.433594 3.6875 12.835938 4.394531 12.632812 C 4.835938 12.507812 5.414062 11.984375 5.457031 11.585938 C 5.5 11.1875 5.054688 10.558594 4.648438 10.324219 C 3.921875 9.898438 3.179688 10.472656 2.96875 11.648438 Z M 2.96875 11.648438 "/>
<path style=" stroke:none;fill-rule:nonzero;fill:rgb(70.588237%,25.882354%,29.803923%);fill-opacity:1;" d="M 0.199219 33.089844 C 0.308594 32.804688 0.433594 32.617188 0.527344 32.417969 C 1.367188 30.589844 3.222656 29.644531 5.125 30.078125 C 7.007812 30.503906 8.257812 32.109375 8.222656 34.054688 C 8.191406 35.875 6.835938 37.492188 5.089844 37.796875 C 2.980469 38.167969 1.214844 37.203125 0.4375 35.257812 C 0.390625 35.132812 0.359375 35.003906 0.257812 34.839844 C 0.199219 34.261719 0.199219 33.71875 0.199219 33.089844 M 3.433594 32.960938 C 3.296875 33.140625 3.105469 33.304688 3.03125 33.507812 C 2.730469 34.320312 3.210938 34.898438 3.824219 35.207031 C 4.113281 35.351562 4.824219 35.132812 5.027344 34.851562 C 5.304688 34.46875 5.488281 33.785156 5.328125 33.378906 C 5.027344 32.617188 4.285156 32.574219 3.433594 32.960938 Z M 3.433594 32.960938 "/>
<path style=" stroke:none;fill-rule:nonzero;fill:rgb(76.078433%,40.392157%,43.529412%);fill-opacity:1;" d="M 44.871094 26 C 44.90625 25.835938 44.992188 25.644531 45.140625 25.425781 C 45.199219 25.488281 45.199219 25.578125 45.199219 25.734375 C 45.109375 25.859375 45.015625 25.917969 44.871094 26 Z M 44.871094 26 "/>
<path style=" stroke:none;fill-rule:nonzero;fill:rgb(76.078433%,40.392157%,43.529412%);fill-opacity:1;" d="M 12.800781 26.292969 C 12.960938 26.277344 13.15625 26.316406 13.386719 26.402344 C 13.226562 26.417969 13.027344 26.382812 12.800781 26.292969 Z M 12.800781 26.292969 "/>
<path style=" stroke:none;fill-rule:nonzero;fill:rgb(69.01961%,20%,24.705882%);fill-opacity:1;" d="M 44.269531 37.785156 C 44.265625 37.738281 44.332031 37.6875 44.457031 37.628906 C 44.457031 37.671875 44.394531 37.726562 44.269531 37.785156 Z M 44.269531 37.785156 "/>
<path style=" stroke:none;fill-rule:nonzero;fill:rgb(67.843139%,15.686275%,20.784314%);fill-opacity:1;" d="M 43.851562 15.386719 C 43.855469 15.355469 43.90625 15.332031 43.976562 15.339844 C 43.992188 15.371094 43.898438 15.394531 43.851562 15.386719 Z M 43.851562 15.386719 "/>
<path style=" stroke:none;fill-rule:nonzero;fill:rgb(69.01961%,20%,24.705882%);fill-opacity:1;" d="M 13.054688 37.78125 C 13.0625 37.75 13.117188 37.738281 13.183594 37.761719 C 13.164062 37.796875 13.132812 37.800781 13.054688 37.78125 Z M 13.054688 37.78125 "/>
<path style=" stroke:none;fill-rule:nonzero;fill:rgb(69.01961%,20%,24.705882%);fill-opacity:1;" d="M 13.148438 7.601562 C 13.148438 7.636719 13.101562 7.664062 13.03125 7.667969 C 13.039062 7.625 13.070312 7.609375 13.148438 7.601562 Z M 13.148438 7.601562 "/>
<path style=" stroke:none;fill-rule:nonzero;fill:rgb(68.627453%,18.039216%,23.137255%);fill-opacity:1;" d="M 12.21875 31.054688 C 12.261719 31.042969 12.292969 31.074219 12.3125 31.113281 C 12.320312 31.121094 12.289062 31.148438 12.246094 31.179688 C 12.214844 31.195312 12.199219 31.097656 12.21875 31.054688 Z M 12.21875 31.054688 "/>
<path style=" stroke:none;fill-rule:nonzero;fill:rgb(69.01961%,20%,24.705882%);fill-opacity:1;" d="M 44.34375 7.632812 C 44.386719 7.660156 44.308594 7.710938 44.308594 7.710938 C 44.308594 7.710938 44.230469 7.675781 44.214844 7.644531 C 44.203125 7.613281 44.300781 7.605469 44.34375 7.632812 Z M 44.34375 7.632812 "/>
<path style=" stroke:none;fill-rule:nonzero;fill:rgb(67.843139%,15.686275%,20.784314%);fill-opacity:1;" d="M 43.945312 30.015625 C 43.941406 30.046875 43.890625 30.066406 43.820312 30.054688 C 43.804688 30.023438 43.898438 30.003906 43.945312 30.015625 Z M 43.945312 30.015625 "/>
<path style=" stroke:none;fill-rule:nonzero;fill:rgb(67.843139%,15.686275%,20.784314%);fill-opacity:1;" d="M 30.347656 30.023438 C 30.339844 30.050781 30.289062 30.070312 30.222656 30.054688 C 30.207031 30.023438 30.300781 30.007812 30.347656 30.023438 Z M 30.347656 30.023438 "/>
<path style=" stroke:none;fill-rule:nonzero;fill:rgb(67.843139%,15.686275%,20.784314%);fill-opacity:1;" d="M 13.347656 30.019531 C 13.394531 30.027344 13.339844 30.105469 13.339844 30.105469 C 13.339844 30.105469 13.253906 30.097656 13.230469 30.074219 C 13.210938 30.046875 13.300781 30.011719 13.347656 30.019531 Z M 13.347656 30.019531 "/>
<path style=" stroke:none;fill-rule:nonzero;fill:rgb(76.078433%,40.392157%,43.529412%);fill-opacity:1;" d="M 12.550781 26.09375 C 12.59375 26.074219 12.660156 26.109375 12.746094 26.191406 C 12.703125 26.210938 12.636719 26.179688 12.550781 26.09375 Z M 12.550781 26.09375 "/>
<path style=" stroke:none;fill-rule:nonzero;fill:rgb(68.627453%,18.039216%,23.137255%);fill-opacity:1;" d="M 12.21875 19.652344 C 12.261719 19.640625 12.292969 19.675781 12.316406 19.710938 C 12.320312 19.71875 12.289062 19.746094 12.246094 19.78125 C 12.214844 19.796875 12.199219 19.699219 12.21875 19.652344 Z M 12.21875 19.652344 "/>
<path style=" stroke:none;fill-rule:nonzero;fill:rgb(68.627453%,18.039216%,23.137255%);fill-opacity:1;" d="M 12.207031 14.25 C 12.238281 14.253906 12.265625 14.300781 12.261719 14.371094 C 12.234375 14.390625 12.199219 14.300781 12.207031 14.25 Z M 12.207031 14.25 "/>
<path style=" stroke:none;fill-rule:nonzero;fill:rgb(67.843139%,15.686275%,20.784314%);fill-opacity:1;" d="M 13.253906 15.371094 C 13.253906 15.28125 13.304688 15.269531 13.378906 15.34375 C 13.394531 15.375 13.300781 15.390625 13.253906 15.371094 Z M 13.253906 15.371094 "/>
<path style=" stroke:none;fill-rule:nonzero;fill:rgb(95.686275%,69.411767%,68.627453%);fill-opacity:1;" d="M 29.601562 23.792969 C 24.648438 23.792969 19.792969 23.792969 14.882812 23.792969 C 14.882812 22.957031 14.882812 22.238281 14.882812 21.441406 C 24.027344 21.441406 33.136719 21.441406 42.339844 21.441406 C 42.339844 22.160156 42.339844 22.902344 42.339844 23.792969 C 38.136719 23.792969 33.917969 23.792969 29.601562 23.792969 Z M 29.601562 23.792969 "/>
<path style=" stroke:none;fill-rule:nonzero;fill:rgb(95.686275%,69.411767%,68.627453%);fill-opacity:1;" d="M 41.941406 10.21875 C 42.222656 10.957031 42.40625 11.691406 42.625 12.5625 C 33.222656 12.5625 24.085938 12.5625 14.890625 12.5625 C 14.890625 11.804688 14.890625 11.085938 14.890625 10.214844 C 23.886719 10.214844 32.867188 10.214844 41.941406 10.21875 Z M 41.941406 10.21875 "/>
<path style=" stroke:none;fill-rule:nonzero;fill:rgb(98.823529%,97.647059%,97.647059%);fill-opacity:1;" d="M 5.277344 23.277344 C 5.011719 23.476562 4.757812 23.765625 4.578125 23.726562 C 4.074219 23.617188 3.417969 23.5 3.164062 23.140625 C 2.953125 22.839844 3.046875 22.003906 3.320312 21.761719 C 3.652344 21.464844 4.394531 21.34375 4.8125 21.511719 C 5.15625 21.648438 5.308594 22.3125 5.492188 22.765625 C 5.539062 22.875 5.386719 23.0625 5.277344 23.277344 Z M 5.277344 23.277344 "/>
<path style=" stroke:none;fill-rule:nonzero;fill:rgb(98.823529%,97.647059%,97.647059%);fill-opacity:1;" d="M 2.960938 11.566406 C 3.179688 10.472656 3.921875 9.898438 4.648438 10.324219 C 5.054688 10.558594 5.5 11.1875 5.457031 11.585938 C 5.414062 11.984375 4.835938 12.507812 4.394531 12.632812 C 3.6875 12.835938 3.128906 12.433594 2.960938 11.566406 Z M 2.960938 11.566406 "/>
<path style=" stroke:none;fill-rule:nonzero;fill:rgb(98.823529%,97.254902%,97.647059%);fill-opacity:1;" d="M 3.496094 32.914062 C 4.285156 32.574219 5.027344 32.617188 5.328125 33.378906 C 5.488281 33.785156 5.304688 34.46875 5.027344 34.851562 C 4.824219 35.132812 4.113281 35.351562 3.824219 35.207031 C 3.210938 34.898438 2.730469 34.320312 3.03125 33.507812 C 3.105469 33.304688 3.296875 33.140625 3.496094 32.914062 Z M 3.496094 32.914062 "/>
</g>
</svg>
