<?xml version="1.0" encoding="UTF-8"?>
<svg xmlns="http://www.w3.org/2000/svg" xmlns:xlink="http://www.w3.org/1999/xlink" width="45px" height="45px" viewBox="0 0 45 45" version="1.1">
<g id="surface1">
<path style=" stroke:none;fill-rule:nonzero;fill:rgb(100%,100%,100%);fill-opacity:1;" d="M 18.898438 45.085938 C 12.628906 45.085938 6.363281 45.085938 0.09375 45.085938 C 0.09375 30.097656 0.09375 15.105469 0.09375 0.0859375 C 7.003906 0.0859375 13.917969 0.0859375 20.863281 0.121094 C 20.238281 0.28125 19.570312 0.359375 18.929688 0.535156 C 17.078125 1.050781 15.6875 2.179688 14.777344 3.855469 C 14.078125 5.140625 13.769531 6.5625 13.640625 8.003906 C 13.53125 9.191406 13.5625 10.390625 13.535156 11.582031 C 13.5 13.117188 13.878906 14.574219 14.417969 15.992188 C 14.957031 17.40625 15.796875 18.644531 16.867188 19.703125 C 17.613281 20.4375 18.476562 21.039062 19.460938 21.460938 C 21.046875 22.148438 22.671875 22.332031 24.347656 21.925781 C 26.125 21.496094 27.582031 20.546875 28.789062 19.167969 C 29.746094 18.070312 30.464844 16.855469 30.941406 15.488281 C 31.492188 13.898438 31.6875 12.269531 31.65625 10.585938 C 31.632812 9.054688 31.546875 7.539062 31.199219 6.046875 C 30.90625 4.792969 30.414062 3.625 29.570312 2.636719 C 28.511719 1.402344 27.144531 0.683594 25.566406 0.351562 C 25.101562 0.253906 24.636719 0.175781 24.171875 0.0859375 C 31.140625 0.0859375 38.109375 0.0859375 45.082031 0.0859375 C 45.082031 15.078125 45.082031 30.066406 45.082031 45.085938 C 38.757812 45.085938 32.429688 45.085938 26.070312 45.050781 C 26.746094 44.953125 27.449219 44.90625 28.152344 44.820312 C 29.226562 44.6875 30.320312 44.609375 31.371094 44.363281 C 33.210938 43.9375 35.042969 43.457031 36.722656 42.542969 C 37.671875 42.027344 38.570312 41.449219 39.289062 40.632812 C 39.476562 40.421875 39.710938 40.136719 39.707031 39.886719 C 39.6875 38.15625 39.613281 36.429688 39.550781 34.699219 C 39.492188 33.15625 39.277344 31.628906 38.847656 30.140625 C 38.484375 28.886719 37.914062 27.746094 37.019531 26.777344 C 35.832031 25.496094 34.332031 24.722656 32.714844 24.183594 C 31.445312 23.761719 30.136719 23.445312 28.835938 23.125 C 28.144531 22.957031 27.527344 22.886719 26.832031 23.441406 C 25.09375 24.824219 23.035156 25.019531 20.902344 24.605469 C 19.742188 24.378906 18.703125 23.894531 17.824219 23.074219 C 17.695312 22.953125 17.417969 22.929688 17.222656 22.953125 C 16.859375 23 16.511719 23.128906 16.148438 23.199219 C 14.101562 23.59375 12.105469 24.140625 10.265625 25.144531 C 8.882812 25.902344 7.78125 26.957031 7.027344 28.367188 C 6.230469 29.859375 5.929688 31.492188 5.734375 33.132812 C 5.550781 34.667969 5.527344 36.222656 5.453125 37.765625 C 5.425781 38.335938 5.488281 38.914062 5.4375 39.480469 C 5.390625 40.011719 5.621094 40.375 5.964844 40.730469 C 7.285156 42.097656 8.925781 42.929688 10.699219 43.488281 C 11.992188 43.894531 13.320312 44.203125 14.648438 44.457031 C 15.78125 44.679688 16.941406 44.761719 18.089844 44.914062 C 18.363281 44.953125 18.628906 45.03125 18.898438 45.085938 Z M 18.898438 45.085938 "/>
<path style=" stroke:none;fill-rule:nonzero;fill:rgb(0%,0%,0%);fill-opacity:1;" d="M 18.9375 45.085938 C 18.628906 45.03125 18.363281 44.953125 18.089844 44.914062 C 16.941406 44.761719 15.78125 44.679688 14.648438 44.457031 C 13.320312 44.203125 11.992188 43.894531 10.699219 43.488281 C 8.925781 42.929688 7.285156 42.097656 5.964844 40.730469 C 5.621094 40.375 5.390625 40.011719 5.4375 39.480469 C 5.488281 38.914062 5.425781 38.335938 5.453125 37.765625 C 5.527344 36.222656 5.550781 34.667969 5.734375 33.132812 C 5.929688 31.492188 6.230469 29.859375 7.027344 28.367188 C 7.78125 26.957031 8.882812 25.902344 10.265625 25.144531 C 12.105469 24.140625 14.101562 23.59375 16.148438 23.199219 C 16.511719 23.128906 16.859375 23 17.222656 22.953125 C 17.417969 22.929688 17.695312 22.953125 17.824219 23.074219 C 18.703125 23.894531 19.742188 24.378906 20.902344 24.605469 C 23.035156 25.019531 25.09375 24.824219 26.832031 23.441406 C 27.527344 22.886719 28.144531 22.957031 28.835938 23.125 C 30.136719 23.445312 31.445312 23.761719 32.714844 24.183594 C 34.332031 24.722656 35.832031 25.496094 37.019531 26.777344 C 37.914062 27.746094 38.484375 28.886719 38.847656 30.140625 C 39.277344 31.628906 39.492188 33.15625 39.550781 34.699219 C 39.613281 36.429688 39.6875 38.15625 39.707031 39.886719 C 39.710938 40.136719 39.476562 40.421875 39.289062 40.632812 C 38.570312 41.449219 37.671875 42.027344 36.722656 42.542969 C 35.042969 43.457031 33.210938 43.9375 31.371094 44.363281 C 30.320312 44.609375 29.226562 44.6875 28.152344 44.820312 C 27.449219 44.90625 26.746094 44.953125 26.03125 45.050781 C 23.671875 45.085938 21.324219 45.085938 18.9375 45.085938 Z M 18.9375 45.085938 "/>
<path style=" stroke:none;fill-rule:nonzero;fill:rgb(0%,0%,0%);fill-opacity:1;" d="M 24.128906 0.0859375 C 24.636719 0.175781 25.101562 0.253906 25.566406 0.351562 C 27.144531 0.683594 28.511719 1.402344 29.570312 2.636719 C 30.414062 3.625 30.90625 4.792969 31.199219 6.046875 C 31.546875 7.539062 31.632812 9.054688 31.65625 10.585938 C 31.6875 12.269531 31.492188 13.898438 30.941406 15.488281 C 30.464844 16.855469 29.746094 18.070312 28.789062 19.167969 C 27.582031 20.546875 26.125 21.496094 24.347656 21.925781 C 22.671875 22.332031 21.046875 22.148438 19.460938 21.460938 C 18.476562 21.039062 17.613281 20.4375 16.867188 19.703125 C 15.796875 18.644531 14.957031 17.40625 14.417969 15.992188 C 13.878906 14.574219 13.5 13.117188 13.535156 11.582031 C 13.5625 10.390625 13.53125 9.191406 13.640625 8.003906 C 13.769531 6.5625 14.078125 5.140625 14.777344 3.855469 C 15.6875 2.179688 17.078125 1.050781 18.929688 0.535156 C 19.570312 0.359375 20.238281 0.28125 20.90625 0.121094 C 21.972656 0.0859375 23.03125 0.0859375 24.128906 0.0859375 Z M 24.128906 0.0859375 "/>
</g>
</svg>
